<svg width="233" height="85" viewBox="0 0 233 85" fill="none" xmlns="http://www.w3.org/2000/svg">
<path d="M74.7848 32.4537V36.0708C74.0991 36.1801 73.4632 36.2397 72.8869 36.2397C71.4261 36.2397 70.343 35.9217 69.6176 35.2857C68.8922 34.6498 68.5345 33.6859 68.5246 32.3742C68.5246 31.0725 68.8922 30.0987 69.6276 29.4429C70.3629 28.787 71.4361 28.4591 72.8471 28.4591C73.4433 28.4591 74.0197 28.5187 74.5562 28.6479V30.0192C74.0197 29.9 73.5029 29.8304 72.9962 29.8304C72.3701 29.8304 71.8534 29.9198 71.4559 30.0888C71.0585 30.2577 70.7604 30.5359 70.5716 30.9036C70.3828 31.2812 70.2834 31.7681 70.2834 32.3842C70.2834 33.2387 70.4821 33.8648 70.8895 34.2622C71.297 34.6597 71.913 34.8585 72.7577 34.8585C72.867 34.8585 73.016 34.8585 73.2247 34.8585V32.4637H74.7848V32.4537Z" fill="#706F6F"/>
<path d="M77.5469 35.8223C77.0103 35.5342 76.5929 35.1069 76.3047 34.5206C76.0166 33.9443 75.8675 33.2189 75.8675 32.3544C75.8675 31.4899 76.0166 30.7744 76.3047 30.1881C76.5929 29.6018 77.0103 29.1746 77.5469 28.8864C78.0834 28.5982 78.7194 28.4591 79.4547 28.4591C80.1901 28.4591 80.826 28.6082 81.3626 28.8864C81.8992 29.1746 82.3166 29.6118 82.6047 30.1881C82.8929 30.7645 83.0419 31.4899 83.0419 32.3444C83.0419 33.199 82.8929 33.9244 82.6047 34.5007C82.3166 35.087 81.8992 35.5143 81.3626 35.8025C80.826 36.0906 80.1901 36.2297 79.4547 36.2297C78.7194 36.2297 78.0834 36.0906 77.5469 35.8025M80.8459 34.302C81.1639 33.9045 81.3229 33.2686 81.3229 32.3941C81.3229 31.5197 81.1639 30.834 80.836 30.4266C80.518 30.0192 80.0509 29.8105 79.4547 29.8105C78.8585 29.8105 78.3816 30.0093 78.0636 30.4067C77.7456 30.8042 77.5866 31.4402 77.5866 32.3146C77.5866 33.1891 77.7456 33.8747 78.0636 34.2821C78.3816 34.6895 78.8486 34.8883 79.4547 34.8883C80.0609 34.8883 80.5279 34.6895 80.8459 34.2921" fill="#706F6F"/>
<path d="M89.6803 32.8314C89.9287 33.1394 90.0579 33.5369 90.0579 34.0238C90.0579 34.5107 89.9386 34.9181 89.6803 35.2461C89.4318 35.574 89.0344 35.8224 88.4779 35.9913C87.9214 36.1603 87.1961 36.2397 86.3017 36.2397C85.9838 36.2397 85.626 36.2298 85.2285 36.2C84.8311 36.1702 84.4733 36.1404 84.1554 36.0907V28.7275C84.5131 28.648 84.9106 28.5884 85.3478 28.5387C85.7751 28.489 86.1924 28.4691 86.5998 28.4691C87.7227 28.4691 88.5475 28.648 89.0642 28.9858C89.5809 29.3336 89.8393 29.8603 89.8393 30.5757C89.8393 30.9831 89.73 31.3309 89.5213 31.6191C89.3126 31.9172 89.0145 32.1159 88.627 32.2253C89.0741 32.3246 89.4219 32.5234 89.6803 32.8215M85.795 29.7708V31.639H86.8781C87.3749 31.639 87.7326 31.5595 87.9512 31.4005C88.1699 31.2415 88.2692 30.9931 88.2692 30.6552C88.2692 30.4267 88.2195 30.2379 88.1301 30.0888C88.0307 29.9398 87.8817 29.8404 87.6631 29.7708C87.4544 29.7013 87.1662 29.6715 86.8085 29.6715C86.4508 29.6715 86.1328 29.7013 85.795 29.7609M87.7923 34.8983C88.0506 34.8188 88.2295 34.7095 88.3388 34.5505C88.4481 34.3915 88.4978 34.1928 88.4978 33.9543C88.4978 33.5866 88.3885 33.3183 88.1599 33.1494C87.9314 32.9805 87.5637 32.901 87.047 32.901H85.8049V34.9778C86.0632 35.0076 86.3812 35.0175 86.7489 35.0175C87.196 35.0175 87.5438 34.9778 87.7923 34.8983Z" fill="#706F6F"/>
<path d="M92.6909 28.5585H91.0116V36.1502H92.6909V28.5585Z" fill="#706F6F"/>
<path d="M95.7116 34.8187H99.4578V36.1502H94.0522V28.5585H99.4081V29.89H95.7116V31.5992H98.8815V32.9307H95.7116V34.8187Z" fill="#706F6F"/>
<path d="M104.993 36.1503L103.046 33.368H102.956C102.718 33.368 102.449 33.368 102.161 33.3382V36.1503H100.512V28.7275C100.879 28.648 101.267 28.5884 101.674 28.5387C102.082 28.489 102.489 28.4691 102.887 28.4691C103.99 28.4691 104.814 28.6679 105.361 29.0653C105.907 29.4628 106.186 30.0789 106.186 30.9037C106.186 31.4402 106.056 31.8973 105.788 32.265C105.53 32.6327 105.152 32.9109 104.655 33.0997L106.812 36.1503H104.983H104.993ZM102.161 32.0762C102.449 32.106 102.728 32.1259 102.986 32.1259C103.542 32.1259 103.95 32.0265 104.218 31.8377C104.486 31.6489 104.616 31.3409 104.616 30.9136C104.616 30.4863 104.486 30.1882 104.238 29.9895C103.99 29.8007 103.592 29.7013 103.065 29.7013C102.767 29.7013 102.469 29.7212 102.161 29.7808V32.0861V32.0762Z" fill="#706F6F"/>
<path d="M112.585 28.5585H114.165V36.1502H112.475L109.176 31.0626V36.1502H107.596V28.5585H109.286L112.585 33.6362V28.5585Z" fill="#706F6F"/>
<path d="M116.957 35.8223C116.42 35.5342 116.003 35.1069 115.715 34.5206C115.426 33.9443 115.277 33.2189 115.277 32.3544C115.277 31.4899 115.426 30.7744 115.715 30.1881C116.003 29.6018 116.42 29.1746 116.957 28.8864C117.493 28.5982 118.129 28.4591 118.865 28.4591C119.6 28.4591 120.236 28.6082 120.772 28.8864C121.309 29.1746 121.726 29.6118 122.015 30.1881C122.303 30.7645 122.452 31.4899 122.452 32.3444C122.452 33.199 122.303 33.9244 122.015 34.5007C121.726 35.087 121.309 35.5143 120.772 35.8025C120.236 36.0906 119.6 36.2297 118.865 36.2297C118.129 36.2297 117.493 36.0906 116.957 35.8025M120.256 34.302C120.574 33.9045 120.733 33.2686 120.733 32.3941C120.733 31.5197 120.574 30.834 120.246 30.4266C119.928 30.0192 119.461 29.8105 118.865 29.8105C118.268 29.8105 117.791 30.0093 117.473 30.4067C117.155 30.8042 116.996 31.4402 116.996 32.3146C116.996 33.1891 117.155 33.8747 117.473 34.2821C117.791 34.6895 118.258 34.8883 118.865 34.8883C119.471 34.8883 119.938 34.6895 120.256 34.2921" fill="#706F6F"/>
<path d="M126.159 36.1006V28.7175C126.516 28.638 126.904 28.5783 127.331 28.5287C127.758 28.4889 128.176 28.4591 128.573 28.4591C129.964 28.4591 131.018 28.7771 131.713 29.413C132.419 30.049 132.767 31.0228 132.767 32.3444C132.767 33.2487 132.598 33.984 132.27 34.5603C131.942 35.1268 131.435 35.554 130.769 35.8223C130.104 36.0906 129.259 36.2198 128.235 36.2198C127.51 36.2198 126.814 36.1801 126.149 36.1006M130.004 34.62C130.352 34.451 130.61 34.1827 130.779 33.8151C130.948 33.4474 131.038 32.9605 131.038 32.3544C131.038 31.7482 130.948 31.2712 130.779 30.9036C130.61 30.5359 130.352 30.2577 130.004 30.0888C129.656 29.9198 129.219 29.8304 128.683 29.8304C128.414 29.8304 128.126 29.8602 127.828 29.9099V34.8386C128.047 34.8684 128.325 34.8783 128.673 34.8783C129.209 34.8783 129.656 34.7988 130.004 34.6299" fill="#706F6F"/>
<path d="M135.529 34.8187H139.275V36.1502H133.87V28.5585H139.225V29.89H135.529V31.5992H138.699V32.9307H135.529V34.8187Z" fill="#706F6F"/>
<path d="M142.912 36.1502V28.5585H144.591V34.7591H148.089V36.1502H142.912Z" fill="#706F6F"/>
<path d="M153.922 36.1502L153.296 34.1231H150.474L149.848 36.1502H148.208L150.663 28.5585H153.107L155.562 36.1502H153.912H153.922ZM150.881 32.7916H152.889L151.885 29.5522L150.881 32.7916Z" fill="#706F6F"/>
<path d="M158.91 28.6877C159.685 28.5386 160.46 28.4591 161.215 28.4591C162.358 28.4591 163.213 28.6777 163.779 29.1249C164.346 29.572 164.624 30.2577 164.624 31.2017C164.624 32.1457 164.346 32.7916 163.789 33.2487C163.233 33.7157 162.408 33.9443 161.315 33.9443C161.166 33.9443 160.917 33.9443 160.579 33.9244V36.1502H158.9V28.6877H158.91ZM162.597 32.3444C162.855 32.1159 162.994 31.7383 162.994 31.2116C162.994 30.685 162.865 30.3074 162.597 30.0689C162.328 29.8304 161.921 29.7112 161.364 29.7112C161.086 29.7112 160.828 29.731 160.579 29.7708V32.6425C160.828 32.6723 161.076 32.6922 161.335 32.6922C161.911 32.6922 162.328 32.573 162.597 32.3444Z" fill="#706F6F"/>
<path d="M170.179 36.1503L168.232 33.368H168.142C167.904 33.368 167.635 33.368 167.347 33.3382V36.1503H165.698V28.7275C166.065 28.648 166.453 28.5884 166.86 28.5387C167.268 28.489 167.675 28.4691 168.073 28.4691C169.176 28.4691 170 28.6679 170.547 29.0653C171.093 29.4628 171.372 30.0789 171.372 30.9037C171.372 31.4402 171.242 31.8973 170.974 32.265C170.716 32.6327 170.338 32.9109 169.841 33.0997L171.998 36.1503H170.169H170.179ZM167.337 32.0762C167.625 32.106 167.904 32.1259 168.162 32.1259C168.718 32.1259 169.126 32.0265 169.394 31.8377C169.662 31.6489 169.792 31.3409 169.792 30.9136C169.792 30.4863 169.662 30.1882 169.414 29.9895C169.166 29.8007 168.768 29.7013 168.241 29.7013C167.943 29.7013 167.645 29.7212 167.337 29.7808V32.0861V32.0762Z" fill="#706F6F"/>
<path d="M173.846 35.8223C173.309 35.5342 172.892 35.1069 172.604 34.5206C172.315 33.9443 172.166 33.2189 172.166 32.3544C172.166 31.4899 172.315 30.7744 172.604 30.1881C172.892 29.6018 173.309 29.1746 173.846 28.8864C174.382 28.5982 175.018 28.4591 175.754 28.4591C176.489 28.4591 177.125 28.6082 177.661 28.8864C178.198 29.1746 178.615 29.6118 178.903 30.1881C179.192 30.7645 179.341 31.4899 179.341 32.3444C179.341 33.199 179.192 33.9244 178.903 34.5007C178.615 35.087 178.198 35.5143 177.661 35.8025C177.125 36.0906 176.489 36.2297 175.754 36.2297C175.018 36.2297 174.382 36.0906 173.846 35.8025M177.145 34.302C177.463 33.9045 177.622 33.2686 177.622 32.3941C177.622 31.5197 177.463 30.834 177.145 30.4266C176.827 30.0192 176.36 29.8105 175.763 29.8105C175.167 29.8105 174.69 30.0093 174.372 30.4067C174.054 30.8042 173.895 31.4402 173.895 32.3146C173.895 33.1891 174.054 33.8747 174.372 34.2821C174.69 34.6895 175.157 34.8883 175.763 34.8883C176.37 34.8883 176.837 34.6895 177.155 34.2921" fill="#706F6F"/>
<path d="M185.282 28.5585H186.922L184.478 36.1502H182.003L179.559 28.5585H181.308L183.285 34.8783L185.282 28.5585Z" fill="#706F6F"/>
<path d="M189.287 28.5585H187.608V36.1502H189.287V28.5585Z" fill="#706F6F"/>
<path d="M195.647 28.5585H197.227V36.1502H195.537L192.228 31.0626V36.1502H190.648V28.5585H192.338L195.647 33.6362V28.5585Z" fill="#706F6F"/>
<path d="M199.354 35.3056C198.678 34.6796 198.34 33.6958 198.34 32.3643C198.34 31.0328 198.688 30.0987 199.384 29.4429C200.079 28.787 201.083 28.4591 202.404 28.4591C202.991 28.4591 203.537 28.5187 204.034 28.638V30.0093C203.537 29.89 203.03 29.8304 202.534 29.8304C201.977 29.8304 201.52 29.9198 201.162 30.0888C200.805 30.2577 200.536 30.526 200.367 30.8936C200.188 31.2613 200.099 31.7383 200.099 32.3345C200.099 32.9307 200.188 33.4375 200.357 33.8051C200.536 34.1728 200.795 34.4411 201.142 34.61C201.49 34.779 201.927 34.8585 202.474 34.8585C202.961 34.8585 203.478 34.779 204.034 34.62V36.0012C203.786 36.0807 203.517 36.1403 203.219 36.1801C202.921 36.2198 202.623 36.2496 202.325 36.2496C201.023 36.2496 200.029 35.9316 199.364 35.3056" fill="#706F6F"/>
<path d="M206.637 28.5585H204.958V36.1502H206.637V28.5585Z" fill="#706F6F"/>
<path d="M213.106 36.1502L212.48 34.1231H209.658L209.032 36.1502H207.392L209.847 28.5585H212.291L214.746 36.1502H213.096H213.106ZM210.055 32.7916H212.063L211.059 29.5522L210.055 32.7916Z" fill="#706F6F"/>
<path d="M218.095 36.1006V28.7175C218.452 28.638 218.84 28.5783 219.267 28.5287C219.694 28.4889 220.112 28.4591 220.509 28.4591C221.9 28.4591 222.954 28.7771 223.649 29.413C224.345 30.049 224.703 31.0228 224.703 32.3444C224.703 33.2487 224.534 33.984 224.206 34.5603C223.868 35.1268 223.371 35.554 222.705 35.8223C222.04 36.0906 221.195 36.2198 220.171 36.2198C219.446 36.2198 218.75 36.1801 218.085 36.1006M221.95 34.62C222.298 34.451 222.556 34.1827 222.725 33.8151C222.894 33.4474 222.984 32.9605 222.984 32.3544C222.984 31.7482 222.894 31.2712 222.725 30.9036C222.556 30.5359 222.298 30.2577 221.95 30.0888C221.602 29.9198 221.165 29.8304 220.638 29.8304C220.37 29.8304 220.082 29.8602 219.784 29.9099V34.8386C220.003 34.8684 220.281 34.8783 220.629 34.8783C221.175 34.8783 221.612 34.7988 221.96 34.6299" fill="#706F6F"/>
<path d="M227.465 34.8187H231.221V36.1502H225.816V28.5585H231.162V29.89H227.465V31.5992H230.645V32.9307H227.465V34.8187Z" fill="#706F6F"/>
<path d="M80.9552 49.6048C81.5018 50.2706 81.78 51.1351 81.78 52.2182C81.78 53.3013 81.5117 54.1658 80.9652 54.8813C80.4186 55.5967 79.5442 56.1433 78.3418 56.5109C77.1295 56.8786 75.5396 57.0674 73.5721 57.0674C72.8666 57.0674 72.0816 57.0376 71.227 56.978C70.3625 56.9183 69.5874 56.8389 68.8819 56.7395V40.6219C69.6669 40.4529 70.5414 40.3138 71.4854 40.2045C72.4294 40.0952 73.3436 40.0455 74.2379 40.0455C76.7022 40.0455 78.5008 40.4231 79.6336 41.1883C80.7664 41.9435 81.3428 43.1061 81.3428 44.6761C81.3428 45.5605 81.1142 46.3256 80.6472 46.9715C80.1801 47.6174 79.5342 48.0547 78.6896 48.2931C79.6734 48.5018 80.4385 48.939 80.985 49.6048M72.4592 42.9173V47.0113H74.8242C75.9172 47.0113 76.7022 46.8424 77.1693 46.4946C77.6363 46.1468 77.8748 45.6002 77.8748 44.8749C77.8748 44.3681 77.7655 43.9507 77.5568 43.6427C77.3481 43.3247 77.0103 43.0962 76.5433 42.9471C76.0762 42.798 75.4502 42.7186 74.6751 42.7186C73.9 42.7186 73.1846 42.7881 72.4592 42.9173ZM76.8215 54.146C77.378 53.977 77.7754 53.7286 78.0238 53.3908C78.2623 53.0529 78.3816 52.6157 78.3816 52.0791C78.3816 51.2742 78.1332 50.6879 77.6363 50.3203C77.1395 49.9526 76.3246 49.7737 75.1918 49.7737H72.4691V54.3248C73.0355 54.3844 73.7212 54.4142 74.5459 54.4142C75.5098 54.4142 76.275 54.3348 76.8414 54.1559" fill="#00AEC3"/>
<path d="M85.4969 55.3483C84.3542 54.1856 83.7878 52.397 83.7878 49.9823V40.2542H87.4644V50.3401C87.4644 51.6418 87.7427 52.5957 88.2892 53.192C88.8357 53.7882 89.6803 54.0863 90.8231 54.0863C91.9658 54.0863 92.8105 53.7882 93.357 53.192C93.9035 52.5957 94.1817 51.6418 94.1817 50.3401V40.2542H97.7988V49.9823C97.7988 52.397 97.2324 54.1856 96.1095 55.3483C94.9866 56.5109 93.2179 57.0972 90.833 57.0972C88.4482 57.0972 86.6397 56.5109 85.5069 55.3483" fill="#00AEC3"/>
<path d="M104.337 53.9571H112.545V56.8785H100.72V40.2542H112.435V43.1756H104.337V46.9119H111.283V49.8333H104.337V53.9571Z" fill="#00AEC3"/>
<path d="M125.781 40.2542H129.229V56.8785H125.543L118.299 45.7492V56.8785H114.841V40.2542H118.537L125.781 51.3834V40.2542Z" fill="#00AEC3"/>
<path d="M135.35 56.1532C134.177 55.5272 133.263 54.5832 132.627 53.3014C131.981 52.0295 131.663 50.4495 131.663 48.5615C131.663 46.6735 131.981 45.0935 132.627 43.8216C133.273 42.5497 134.177 41.5957 135.35 40.9697C136.522 40.3437 137.914 40.0356 139.533 40.0356C141.153 40.0356 142.544 40.3536 143.717 40.9796C144.889 41.6057 145.803 42.5596 146.439 43.8315C147.075 45.1035 147.393 46.6834 147.393 48.5615C147.393 50.4395 147.075 52.0195 146.43 53.2914C145.784 54.5634 144.879 55.5173 143.707 56.1433C142.534 56.7693 141.143 57.0873 139.533 57.0873C137.924 57.0873 136.522 56.7693 135.35 56.1532ZM142.574 52.8244C143.27 51.95 143.617 50.5588 143.617 48.6509C143.617 46.743 143.27 45.2326 142.564 44.3383C141.859 43.444 140.855 42.9968 139.533 42.9968C138.212 42.9968 137.188 43.4341 136.483 44.3085C135.777 45.1829 135.429 46.584 135.429 48.4919C135.429 50.3998 135.777 51.9102 136.473 52.8045C137.168 53.6988 138.192 54.146 139.523 54.146C140.855 54.146 141.868 53.7088 142.564 52.8343" fill="#00AEC3"/>
<path d="M151.577 56.9085C150.772 56.7892 150.027 56.6103 149.341 56.3818V53.4107C150.037 53.6392 150.802 53.8181 151.646 53.9473C152.481 54.0764 153.266 54.146 153.992 54.146C155.065 54.146 155.84 53.987 156.327 53.6591C156.804 53.3312 157.052 52.8542 157.052 52.2182C157.052 51.8705 156.983 51.5724 156.833 51.3339C156.684 51.0954 156.446 50.8966 156.098 50.7178C155.75 50.5389 155.263 50.37 154.647 50.211L153.395 49.8831C151.905 49.5154 150.802 48.9391 150.066 48.1541C149.331 47.3691 148.963 46.3456 148.963 45.0935C148.963 43.4837 149.55 42.2416 150.722 41.3572C151.895 40.4729 153.624 40.0356 155.909 40.0356C156.635 40.0356 157.34 40.0754 158.016 40.1648C158.692 40.2543 159.308 40.3636 159.854 40.5226V43.5036C159.318 43.3347 158.721 43.2154 158.066 43.126C157.41 43.0366 156.754 42.9968 156.098 42.9968C154.856 42.9968 153.962 43.1658 153.415 43.4937C152.879 43.8315 152.6 44.2986 152.6 44.9146C152.6 45.2525 152.67 45.5307 152.789 45.7593C152.918 45.9878 153.137 46.1766 153.435 46.3456C153.743 46.5145 154.17 46.6635 154.717 46.8225L155.979 47.1405C157.599 47.5479 158.791 48.1342 159.556 48.9192C160.321 49.6943 160.699 50.7277 160.699 51.9996C160.699 53.0529 160.431 53.9671 159.904 54.7422C159.367 55.5173 158.602 56.1036 157.599 56.511C156.595 56.9184 155.393 57.1171 154.001 57.1171C153.187 57.1171 152.382 57.0575 151.577 56.9283" fill="#00AEC3"/>
<path d="M179.649 56.8785L178.277 52.4368H172.097L170.725 56.8785H167.148L172.534 40.2542H177.89L183.276 56.8785H179.659H179.649ZM172.981 49.5352H177.373L175.177 42.4502L172.981 49.5352Z" fill="#00AEC3"/>
<path d="M188.582 40.2542H184.915V56.8785H188.582V40.2542Z" fill="#00AEC3"/>
<path d="M201.4 56.8786L197.147 50.7774H196.948C196.422 50.7774 195.845 50.7575 195.2 50.7177V56.8786H191.583V40.6219C192.378 40.4529 193.222 40.3138 194.126 40.2045C195.031 40.1052 195.915 40.0455 196.789 40.0455C199.194 40.0455 201.003 40.4828 202.205 41.3572C203.407 42.2316 204.004 43.5731 204.004 45.3816C204.004 46.5641 203.715 47.5578 203.139 48.3726C202.563 49.1775 201.738 49.7837 200.655 50.1911L205.385 56.8786H201.39H201.4ZM195.19 47.9553C195.816 48.0248 196.422 48.0547 196.998 48.0547C198.21 48.0547 199.115 47.846 199.691 47.4286C200.267 47.0113 200.556 46.3356 200.556 45.3916C200.556 44.4476 200.277 43.8017 199.731 43.3744C199.184 42.9471 198.32 42.7384 197.157 42.7384C196.501 42.7384 195.836 42.7981 195.19 42.9074V47.9553Z" fill="#00AEC3"/>
<path d="M210.721 53.9571H218.929V56.8785H207.094V40.2542H218.81V43.1756H210.721V46.9119H217.667V49.8333H210.721V53.9571Z" fill="#00AEC3"/>
<path d="M222.974 56.9085C222.169 56.7892 221.423 56.6103 220.738 56.3818V53.4107C221.433 53.6392 222.198 53.8181 223.043 53.9473C223.878 54.0764 224.663 54.146 225.388 54.146C226.461 54.146 227.236 53.987 227.713 53.6591C228.19 53.3312 228.439 52.8542 228.439 52.2182C228.439 51.8705 228.369 51.5724 228.22 51.3339C228.071 51.0954 227.833 50.8966 227.485 50.7178C227.137 50.5389 226.65 50.37 226.034 50.211L224.782 49.8831C223.291 49.5154 222.188 48.9391 221.453 48.1541C220.718 47.3691 220.35 46.3456 220.35 45.0935C220.35 43.4837 220.936 42.2416 222.109 41.3572C223.282 40.4729 225.011 40.0356 227.296 40.0356C228.021 40.0356 228.727 40.0754 229.403 40.1648C230.078 40.2543 230.694 40.3636 231.241 40.5226V43.5036C230.704 43.3347 230.108 43.2154 229.452 43.126C228.797 43.0366 228.141 42.9968 227.485 42.9968C226.243 42.9968 225.348 43.1658 224.802 43.4937C224.265 43.8315 223.987 44.2986 223.987 44.9146C223.987 45.2525 224.057 45.5307 224.176 45.7593C224.305 45.9878 224.524 46.1766 224.822 46.3456C225.13 46.5145 225.557 46.6635 226.104 46.8225L227.366 47.1405C228.985 47.5479 230.178 48.1342 230.943 48.9192C231.708 49.6943 232.086 50.7277 232.086 51.9996C232.086 53.0529 231.817 53.9671 231.291 54.7422C230.754 55.5173 229.989 56.1036 228.985 56.511C227.982 56.9184 226.779 57.1171 225.388 57.1171C224.573 57.1171 223.768 57.0575 222.964 56.9283" fill="#00AEC3"/>
<mask id="mask0_1_643" style="mask-type:luminance" maskUnits="userSpaceOnUse" x="0" y="0" width="61" height="85">
<path d="M0.0397484 80.598C0.109306 80.6278 0.168927 80.6576 0.238485 80.6973C0.467033 80.8265 1.08312 81.7208 1.35141 82.1183C1.37129 82.1481 2.30535 82.9928 2.82207 83.2213C3.46797 83.4995 4.79951 83.748 5.1473 83.6883C5.1473 83.6883 5.1473 83.6883 5.15724 83.6883C5.15724 83.6883 5.2268 83.6883 5.26654 83.6784C5.67395 83.6387 6.07143 83.6983 6.49871 83.9169C6.59808 83.9666 6.77695 84.1454 6.97568 84.364C6.96575 84.364 6.95581 84.374 6.94587 84.3839L7.34335 85C7.34335 85 7.42284 84.9603 7.46259 84.9305C7.67127 84.8112 7.87 84.682 8.04887 84.5528C8.01906 84.523 7.98924 84.4932 7.95943 84.4634C7.83026 84.3243 7.71101 84.1752 7.58183 84.0163C7.40297 83.7976 7.21417 83.579 6.97568 83.42C6.38941 83.0325 5.70376 82.8934 5.08768 82.9828C5.07774 82.9828 4.0145 82.953 3.44809 82.7145C2.81213 82.4462 2.12649 81.9096 1.65946 81.3432C1.36135 80.9855 1.15268 80.5383 0.755202 80.2402C0.536591 80.0713 0.298105 79.9521 0.0496836 79.8527V80.598H0.0397484ZM6.31985 78.4417L7.05518 77.5275C7.47253 77.8057 7.83026 78.074 8.1383 78.3224L7.35328 79.3459C7.05518 79.0279 6.70739 78.7298 6.32979 78.4417M4.74983 77.4579L5.45534 76.5735C5.83294 76.7723 6.20061 76.9909 6.53846 77.1996L5.82301 78.0939C5.48515 77.8653 5.11749 77.6567 4.73989 77.4579M2.52396 76.5437L3.27917 75.5997C3.81576 75.7885 4.37222 76.027 4.90881 76.2953L4.19336 77.1896C3.64683 76.9313 3.08043 76.7226 2.52396 76.5437ZM1.34148 76.2357C1.08312 76.186 0.814823 76.1363 0.556464 76.1065L1.30173 75.1426C1.43091 75.1526 1.56009 75.1724 1.68927 75.1923C1.99731 75.2321 2.33517 75.3116 2.67302 75.4109L1.89794 76.3748C1.70914 76.3251 1.53028 76.2854 1.35141 76.2456M0.089432 75.56L0.0397484 76.0369V76.822L0.0794949 76.7623C0.427285 76.8021 0.775077 76.8518 1.11293 76.9213C3.41828 77.3884 5.55471 78.4814 6.88625 79.9322C6.93593 79.9918 7.13467 80.1607 7.13467 80.1607C7.64145 80.6079 8.41653 80.9955 9.23135 81.1942C8.99287 82.1084 8.75438 82.4959 8.3271 82.9033C8.16811 82.7145 7.99918 82.5257 7.79051 82.3866C7.20423 81.9991 6.51859 81.86 5.9025 81.9494C5.89257 81.9494 4.82932 81.9196 4.26292 81.691C3.62696 81.4227 2.94131 80.8861 2.47428 80.3197C2.17617 79.962 1.9675 79.5149 1.57003 79.2167C1.11293 78.869 0.566403 78.6802 0.0397484 78.6603V79.3658C0.387539 79.3857 0.715456 79.4751 1.06325 79.6838C1.29179 79.813 1.90788 80.7073 2.17618 81.1047C2.19605 81.1346 3.13011 81.9792 3.64683 82.2077C4.29273 82.486 5.62427 82.7344 5.97206 82.6748C5.97206 82.6748 5.97206 82.6748 5.982 82.6748C5.982 82.6748 6.05155 82.6748 6.0913 82.6648C6.49871 82.6251 6.89619 82.6847 7.32348 82.9033C7.42284 82.953 7.60171 83.1319 7.79051 83.3505C7.79051 83.3505 7.77063 83.3604 7.7607 83.3704L8.15817 83.9865C8.15817 83.9865 8.23767 83.9467 8.27741 83.9169C8.27741 83.9169 8.27741 83.9169 8.28735 83.9169L8.30722 83.9368C8.30722 83.9368 8.37678 83.8771 8.40659 83.8473C8.56558 83.748 8.71464 83.6486 8.86369 83.5492C8.84382 83.5294 8.82394 83.4995 8.79413 83.4797C9.40028 82.8437 9.80769 82.1282 9.99649 81.3532L10.0462 81.1346C10.066 81.0451 10.1058 80.6377 10.1058 80.6377C9.97662 80.6377 9.84744 80.6179 9.70832 80.588L10.076 80.1111L10.384 79.7136L10.7418 79.2764L8.973 78.9385L9.84744 79.8726L9.36053 80.5085C8.88356 80.3595 8.34697 80.0614 7.95943 79.803L8.69476 78.8391L9.16179 78.233C9.07236 78.1734 8.66495 77.8455 8.57552 77.766C7.05518 76.5437 4.0145 74.8147 1.79857 74.4967C1.79857 74.4967 1.78864 74.4967 1.7787 74.4967C1.49053 74.457 0.407413 74.3576 0.119243 74.3377L0.089432 75.5798V75.56ZM5.54477 72.887C7.27379 73.1155 8.66495 74.1489 9.38041 74.7551L9.88719 73.7813C9.0823 73.0956 8.08861 72.1417 6.08137 71.8734L5.53484 72.887H5.54477ZM6.58814 70.9592C8.31716 71.1878 9.70833 72.2112 10.4138 72.8273L10.9306 71.8635C10.1257 71.1778 9.09224 70.2835 7.09493 70.0251L6.58814 70.9592ZM0.0794949 70.1941C0.0794949 70.1941 0.218613 70.1941 0.228549 70.204C1.5899 70.6114 2.79226 71.3964 3.34873 71.8734L3.85551 70.9294C3.20961 70.3729 1.68927 69.5084 0.119243 69.0811C0.0496852 69.3296 0.089432 70.0351 0.089432 70.1841M7.59177 69.2004C9.32079 69.4289 10.6821 70.3928 11.3976 71.0089L11.9143 70.0549C11.1094 69.3693 10.0859 68.4651 8.08861 68.1968L7.59177 69.2004ZM1.73895 67.1534C1.73895 67.1534 1.73895 67.1832 1.73895 67.2031C1.20236 67.0242 0.63596 66.8851 0.0794949 66.8155L0.0496836 67.4117V67.9285C1.75883 68.157 3.73626 69.2202 4.44178 69.8165L4.9585 68.8725C4.5014 68.4949 3.6369 67.9583 2.60346 67.531C2.6134 67.531 2.62333 67.5111 2.63327 67.5012C2.74258 67.4018 3.03075 66.9845 2.90157 66.895C2.77239 66.8056 2.50409 66.9149 2.30536 67.0441C2.27555 66.8354 2.20598 66.6168 2.0768 66.577H2.05693C1.90788 66.577 1.76876 67.0242 1.75882 67.1633M1.25205 64.4804C1.14274 64.2717 0.934066 64.0034 0.755202 64.0233C0.586276 64.0432 0.675709 64.5499 0.725393 64.689C0.725393 64.7189 0.745266 64.7387 0.755202 64.7685C0.516718 64.7288 0.278233 64.689 0.0397484 64.6592V65.7423C2.07681 66.0703 4.0145 66.7857 5.61433 67.7098L6.18073 66.6665C6.11118 66.6267 6.08137 66.6069 6.01181 66.5671C5.81307 66.4578 5.61433 66.3485 5.40566 66.2491C5.50503 66.2491 5.60439 66.1796 5.68389 66.0901C5.7932 65.9908 6.0913 65.5734 5.95219 65.484C5.82301 65.3945 5.54478 65.5039 5.35598 65.633C5.32616 65.4244 5.25661 65.2157 5.12743 65.1759C4.96844 65.1263 4.81938 65.6132 4.79951 65.7523C4.79951 65.8218 4.78957 65.9013 4.79951 65.9709C3.79588 65.5337 2.7227 65.1859 1.61971 64.9375C1.6992 64.8878 1.73895 64.7884 1.7787 64.689C1.82838 64.5499 1.90788 64.0531 1.73895 64.0233H1.71908C1.55015 64.0233 1.35141 64.2717 1.25205 64.4804ZM37.3527 57.2264C37.2335 57.2563 37.1341 57.3358 37.0645 57.4451C37.0049 57.5544 36.985 57.6835 37.0148 57.8028C37.0447 57.922 37.1242 58.0214 37.2335 58.091C37.303 58.1307 37.3825 58.1506 37.4719 58.1506C37.5117 58.1506 37.5514 58.1506 37.5912 58.1307C37.7104 58.1009 37.8098 58.0214 37.8793 57.9121C37.939 57.8028 37.9588 57.6736 37.929 57.5544C37.8992 57.4351 37.8197 57.3358 37.7104 57.2662C37.6409 57.2264 37.5614 57.2066 37.4719 57.2066C37.4322 57.2066 37.3924 57.2066 37.3527 57.2264ZM6.95581 74.8942C6.43909 74.6259 4.78957 73.9701 4.05424 73.672L8.07868 66.5274C8.66495 66.736 9.90706 67.1732 10.8014 67.5807C11.1094 67.7198 11.5168 67.9682 11.9143 68.2365C12.4509 68.5942 12.9776 68.9917 13.2558 69.2203L9.4599 76.494C8.83388 76.0667 7.46259 75.1625 6.95581 74.8942ZM8.25754 60.2373C8.25754 60.2373 8.27741 60.2373 8.28735 60.2274C8.30722 60.2473 8.3271 60.2671 8.35691 60.287C8.3271 60.2671 8.28735 60.2572 8.25754 60.2373ZM0.0397484 56.2725C0.278233 56.2725 0.506782 56.2824 0.745267 56.3023C1.06325 56.3222 1.39116 56.3421 1.70914 56.3719C1.888 56.3918 2.0768 56.4116 2.25567 56.4315C2.27554 56.4315 2.30535 56.4315 2.32523 56.4315C2.31529 56.4315 2.39479 56.4315 2.4246 56.4414C2.52397 56.4514 2.62333 56.4712 2.7227 56.4812C3.54746 56.6104 4.36229 56.7892 5.15724 57.0277C5.59446 57.1569 6.03168 57.3059 6.4689 57.4749C6.57821 57.5146 6.68751 57.5643 6.79682 57.604C6.83657 57.6239 6.88625 57.6438 6.926 57.6537C6.93594 57.6537 6.94588 57.6537 6.95581 57.6637C6.99556 57.6835 7.03531 57.6935 7.07505 57.7134C7.29366 57.8127 7.51228 57.9121 7.73089 58.0214C8.23767 58.2698 8.72457 58.548 9.20154 58.8462C9.71826 59.1741 10.1754 59.5119 10.6225 59.8796C10.6225 59.8796 10.6325 59.8796 10.6424 59.8895C10.6424 59.8895 10.6523 59.8895 10.6623 59.8995C10.2946 60.2174 9.94681 60.5354 9.62883 60.8832C9.23135 60.6646 8.83388 60.4659 8.41653 60.287C8.54571 60.3268 8.67489 60.2473 8.78419 60.138C8.8935 60.0386 9.1916 59.6212 9.05249 59.5318C8.92331 59.4424 8.64508 59.5517 8.45628 59.6809C8.42647 59.4722 8.35691 59.2635 8.22773 59.2238C8.06874 59.1741 7.91969 59.661 7.89981 59.8001C7.88987 59.8895 7.88988 59.9889 7.90975 60.0585C6.84651 59.6113 5.72364 59.2635 4.56102 59.0051C4.61071 58.9654 4.66039 58.9157 4.70014 58.8561C4.78957 58.7369 5.00818 58.2798 4.85913 58.2102C4.71008 58.1406 4.47159 58.2996 4.30267 58.4686C4.24304 58.2698 4.13374 58.0711 3.99462 58.0512C3.83563 58.0313 3.76608 58.5381 3.77601 58.6772C3.77601 58.7369 3.78595 58.7965 3.80582 58.8561C3.07049 58.717 2.31529 58.6176 1.55015 58.5679C1.57996 58.5182 1.59984 58.4586 1.62965 58.4089C1.67933 58.2698 1.75882 57.763 1.59984 57.7432C1.43091 57.7233 1.2123 57.9817 1.11293 58.2003C1.00362 57.9916 0.794951 57.7233 0.616087 57.7432C0.44716 57.763 0.536591 58.2698 0.576338 58.4089C0.586275 58.4487 0.606148 58.4884 0.626022 58.5182C0.596211 58.5182 0.566401 58.5182 0.53659 58.5182C0.427284 58.5182 0.1888 58.5182 0.0695578 58.5182L0.0496836 59.8299H0.168927C0.278232 59.8299 0.38754 59.8299 0.496845 59.8299C3.52759 59.9293 6.39934 60.6845 8.78419 61.9365C8.5159 62.3141 8.26748 62.7116 8.0588 63.119C7.64145 62.9004 7.21417 62.7017 6.77695 62.5228C6.8167 62.493 6.85644 62.4632 6.89619 62.4234C7.0055 62.3241 7.3036 61.9067 7.16449 61.8173C7.03531 61.7279 6.75707 61.8372 6.56827 61.9663C6.53846 61.7577 6.4689 61.549 6.33972 61.5092C6.18073 61.4596 6.03168 61.9465 6.01181 62.0856C6.01181 62.1353 6.01181 62.175 6.01181 62.2148C5.30629 61.9663 4.5809 61.7577 3.83563 61.5987C3.83563 61.5887 3.85551 61.5788 3.85551 61.5689C3.94494 61.4496 4.15361 60.9925 4.00456 60.923C3.85551 60.8534 3.61702 61.0124 3.44809 61.1813C3.38847 60.9826 3.27917 60.7838 3.14005 60.764C2.98106 60.7441 2.9115 61.2509 2.92144 61.39C2.92144 61.4099 2.92144 61.4198 2.92144 61.4397C2.43453 61.3602 1.92775 61.3006 1.43091 61.2608C1.45078 61.2211 1.4806 61.1714 1.49053 61.1217C1.54022 60.9826 1.61971 60.4758 1.46072 60.4559C1.29179 60.4361 1.07318 60.6944 0.963876 60.913C0.85457 60.6944 0.645898 60.4361 0.476971 60.4559C0.317981 60.4758 0.397474 60.9826 0.447158 61.1217C0.457095 61.1515 0.467034 61.1813 0.476971 61.2111C0.367666 61.2111 0.188801 61.2111 0.0993691 61.2111L0.0794949 62.3737C0.168927 62.3737 0.377603 62.3737 0.476971 62.3737C4.85913 62.5129 8.85375 64.2816 11.1293 66.9547C9.79775 66.3584 8.14823 65.792 8.07868 65.7622L7.66133 65.6231L3.41828 73.0956C2.69289 72.5094 1.64952 71.9131 0.109306 71.6051C0.0794956 71.6051 0.0695576 71.6448 0.0596207 71.7144V72.2709C0.0596207 72.4 0.0794949 72.5094 0.0794949 72.5491C1.35141 72.8373 2.31529 73.354 3.11024 74.1589H3.12018L3.64683 74.3675C3.66671 74.3675 5.93231 75.2619 6.60802 75.6196C7.27379 75.9674 9.15186 77.289 9.16179 77.2989L9.6487 77.6368L14.1799 69.1109L13.8719 68.8327C13.8719 68.8327 13.852 68.8029 13.5042 68.5247L13.3949 68.2663C12.8186 67.0739 11.964 65.9808 10.8908 65.017C11.338 64.3214 11.8944 63.6655 12.5403 63.0693V61.6484C11.487 62.483 10.6921 63.2979 9.98656 64.2816C9.70832 64.0829 9.42015 63.8842 9.12205 63.6954C9.16179 63.6556 9.19161 63.6059 9.22142 63.5364C9.30091 63.3376 9.67851 62.6619 9.80769 62.4831C10.0661 62.1253 10.3542 61.7875 10.6821 61.4596C11.0101 61.1217 11.3678 60.8037 11.7454 60.4957C12.7888 61.0422 13.9216 61.4099 15.1239 61.3701C15.7996 61.3502 16.4654 61.2211 17.1212 61.0621C17.5684 60.9528 18.0056 60.8037 18.4627 60.7044C18.5124 60.6944 18.572 60.6845 18.6217 60.6745C18.6217 60.6745 18.6416 60.6745 18.6614 60.6745C18.6813 60.6745 18.731 60.6745 18.731 60.6745C18.8403 60.6646 18.9496 60.6547 19.0689 60.6547C19.3173 60.6547 19.4663 60.6646 19.6849 60.7143C20.5594 60.9031 21.2351 61.539 22.0102 62.016C22.7852 62.5029 23.6597 62.8805 24.5739 63.0296C25.0409 63.1091 25.5179 63.1389 25.9849 63.0892C26.4818 63.0395 26.9587 62.9103 27.4357 62.7712C27.8431 62.652 28.2505 62.5427 28.6579 62.4234C28.9859 62.3241 29.3038 62.2148 29.6417 62.1353C29.8206 62.0856 29.9994 62.0558 30.1783 62.026C30.1783 62.026 30.218 62.026 30.2379 62.026C30.2776 62.026 30.3174 62.026 30.3671 62.016C30.4664 62.016 30.5658 62.016 30.6552 62.016C30.7049 62.016 30.7546 62.016 30.7944 62.016C30.7944 62.016 30.8142 62.016 30.8341 62.016C30.9235 62.0359 31.013 62.0558 31.1024 62.0856C31.1123 62.0856 31.1322 62.0856 31.1422 62.0955C31.1422 62.0955 31.1422 62.0955 31.1521 62.0955C31.1918 62.1154 31.2217 62.1353 31.2614 62.1551C31.321 62.1949 31.3806 62.2247 31.4403 62.2644C31.4899 62.2943 31.5396 62.3241 31.5893 62.3638C32.116 62.3439 32.6426 62.3141 33.1693 62.2744C32.8612 62.0856 32.5631 61.8868 32.2551 61.6881C31.9669 61.4993 31.6887 61.3105 31.3707 61.1913C31.003 61.0521 30.5857 61.0422 30.1982 61.082C29.4827 61.1614 28.8169 61.4198 28.1213 61.5987C27.6543 61.7179 27.2072 61.8769 26.7501 61.9961C26.2731 62.1253 25.9253 62.1849 25.4384 62.175C25.3291 62.175 25.2198 62.175 25.1105 62.1551C25.0608 62.1551 25.0111 62.1551 24.9614 62.1452C24.9415 62.1452 24.9217 62.1452 24.9018 62.1452C24.9018 62.1452 24.872 62.1452 24.8621 62.1452C24.6434 62.1054 24.4149 62.0657 24.2062 61.9961C23.7491 61.867 23.4113 61.7278 23.0039 61.5092C22.6064 61.3006 22.2288 61.0521 21.8611 60.7938C21.4835 60.5255 21.1159 60.2572 20.6985 60.0684C20.2315 59.8597 19.7545 59.7405 19.2477 59.7107C18.7509 59.6908 18.254 59.7802 17.7771 59.9193C17.3796 60.0286 16.9821 60.138 16.5747 60.2373C16.4157 60.2771 16.2468 60.3069 16.0878 60.3367C16.0083 60.3466 15.9387 60.3665 15.8592 60.3764C15.8195 60.3764 15.7897 60.3864 15.7499 60.3963C15.7499 60.3963 15.7499 60.3963 15.74 60.3963C15.7201 60.3963 15.7003 60.3963 15.7003 60.3963C15.3922 60.4361 15.0842 60.446 14.7761 60.4361C14.6171 60.4361 14.4581 60.4162 14.2992 60.3963C14.2992 60.3963 14.2992 60.3963 14.2892 60.3963C14.2495 60.3963 14.2197 60.3864 14.1799 60.3764C14.0905 60.3665 14.011 60.3466 13.9216 60.3268C13.5738 60.2473 13.226 60.138 12.8981 60.0088C12.8782 60.0088 12.8384 59.9889 12.8285 59.979C12.7888 59.9591 12.749 59.9392 12.7093 59.9193C12.6099 59.8796 12.5105 59.8299 12.4112 59.7802C12.2224 59.6809 12.0336 59.5815 11.8448 59.4722C11.7156 59.4026 11.5864 59.3231 11.4671 59.2436C11.4671 59.2436 11.4672 59.2436 11.4572 59.2436C11.3877 59.1939 11.3082 59.1542 11.2386 59.1045C9.63876 57.7928 7.80045 56.829 5.83294 56.193C4.28279 55.6962 2.66308 55.4179 1.03343 55.3086C0.715454 55.2888 0.397475 55.2788 0.0695578 55.2689V56.193L0.0397484 56.2725ZM2.96119 54.1261C2.96119 54.1261 2.96119 54.1261 2.95125 54.1261C2.93138 54.1261 2.9115 54.1261 2.9115 54.1261C2.9115 54.1261 2.92144 54.1261 2.96119 54.1261ZM13.1564 54.623C13.1564 54.9012 13.385 55.1298 13.6632 55.1298C13.9414 55.1298 14.17 54.9012 14.17 54.623C14.17 54.3447 13.9414 54.1162 13.6632 54.1162C13.385 54.1162 13.1564 54.3447 13.1564 54.623ZM22.8051 56.2029L23.4411 56.5507L24.8223 54.0168L24.1863 53.669L22.8051 56.2029ZM11.6858 53.9771C11.6858 54.2553 11.9143 54.4839 12.1925 54.4839C12.4708 54.4839 12.6993 54.2553 12.6993 53.9771C12.6993 53.6989 12.4708 53.4703 12.1925 53.4703C11.9143 53.4703 11.6858 53.6989 11.6858 53.9771ZM21.2252 55.3384L21.8611 55.6862L23.2423 53.1523L22.6064 52.8045L21.2252 55.3384ZM19.6452 54.4839L20.2812 54.8317L21.6624 52.2978L21.0264 51.95L19.6452 54.4839ZM37.5912 58.4288C37.144 58.091 36.6869 57.5345 36.3391 56.9184C36.7565 56.4911 37.4123 56.0738 38.3365 56.2228C38.406 56.5607 38.4656 57.0675 38.4756 57.1867C38.5849 57.922 38.406 58.6176 38.2868 58.707C38.2669 58.707 38.247 58.717 38.2172 58.717C38.088 58.717 37.8694 58.6375 37.5912 58.4288ZM36.6074 55.09C36.7068 55.0205 36.826 54.9708 36.8857 54.9509C36.9353 54.941 37.0645 54.9211 37.1838 54.931C37.2036 55.0503 37.2136 55.2788 37.154 55.5869C37.0844 55.6067 37.0248 55.6365 36.9552 55.6664C36.7465 55.408 36.6472 55.1993 36.6074 55.09ZM35.7131 54.4143V54.3944C35.7131 54.2653 35.7827 53.9572 35.8224 53.7982L35.8423 53.7187C35.8423 53.7187 35.8423 53.6989 35.8522 53.6889C36.041 53.0132 36.4087 52.4369 36.8956 52.0295C37.303 51.6916 37.8595 51.473 38.5749 51.3637C39.5587 51.2246 40.8703 52.5661 41.2877 53.0927C41.3672 53.202 41.4964 53.2616 41.6355 53.2418C42.0528 53.1921 42.3013 53.3014 42.4602 53.4306H42.4503C42.192 53.4306 41.8938 53.4802 41.5759 53.6392C41.248 53.7982 41.0095 54.0566 40.8803 54.3944C40.8505 54.0765 41.0095 53.828 41.0194 53.8082C41.089 53.7088 41.0989 53.5697 41.0492 53.4604C40.9002 53.1126 40.6219 52.8244 40.2543 52.6654C39.8667 52.4965 39.4096 52.4766 38.9525 52.6058C38.6246 52.7052 38.3663 52.9138 38.1973 53.2219C37.9191 53.7287 37.8992 54.5037 38.1278 55.4279C38.0582 55.4279 37.9887 55.4279 37.9191 55.4279C37.9489 55.0801 37.9191 54.772 37.8793 54.6329C37.8297 54.4441 37.7204 54.3149 37.5614 54.2454C37.1639 54.0864 36.7366 54.1957 36.6869 54.2056C36.6372 54.2156 36.21 54.3348 35.9417 54.6627C35.6734 55.0006 35.9715 55.4477 36.0708 55.5968C36.1106 55.6465 36.1503 55.7359 36.2 55.8154C36.2298 55.875 36.2696 55.9347 36.2994 55.9943C36.1901 56.0638 36.0907 56.1235 35.9913 56.193C35.7926 55.6962 35.6237 55.0403 35.6932 54.3746M38.5054 50.6284C37.7303 50.688 37.0148 50.9762 36.4186 51.4531C35.8224 51.95 35.3852 52.6257 35.1467 53.4306C35.0871 53.5995 34.9877 54.0367 34.9678 54.3249C34.8884 55.0602 35.0275 55.8452 35.3852 56.67L35.574 57.0774C35.9814 57.8624 36.5577 58.5878 37.1341 59.0151C37.5812 59.3529 37.929 59.4523 38.1973 59.4523C38.3364 59.4523 38.4557 59.4225 38.5451 59.3827C39.1115 59.1542 39.35 58.3394 39.201 57.1271C39.1811 56.8488 39.0221 55.875 38.9227 55.5272C38.8333 55.2291 38.7637 54.941 38.7339 54.6627C38.7339 54.6528 38.5849 53.5101 39.1513 53.3213C39.6779 53.1623 40.0754 53.3411 40.2741 53.6094C40.2245 53.7187 40.1748 53.8678 40.145 54.0466C40.0853 54.4044 40.1052 54.931 40.5623 55.4179C40.7213 55.5869 40.9598 55.6365 41.1685 55.5571C41.3771 55.4676 41.5162 55.2689 41.5162 55.0403C41.5162 54.6826 41.6355 54.4342 41.8938 54.305C42.2516 54.1361 42.5397 54.156 42.7186 54.2056C42.9273 54.2653 43.1459 54.1957 43.285 54.0268C43.4142 53.8678 43.444 53.6591 43.3645 53.4703C43.2353 53.1722 43.0465 52.9238 42.7981 52.7549C42.5099 52.5561 42.1621 52.4667 41.7547 52.4766C40.93 51.5227 39.8965 50.7874 39.201 50.6681C39.1612 50.6681 38.9029 50.6085 38.6445 50.6085C38.5948 50.6085 38.5352 50.6085 38.4954 50.6085M31.6986 49.4359L31.4701 49.8732C31.4701 49.8732 31.4701 49.8831 31.4899 49.893C31.4899 49.893 31.5098 49.9129 31.5198 49.9228C31.5297 49.9328 31.5496 49.9427 31.5595 49.9626C31.5595 49.9626 31.5595 49.9626 31.5694 49.9626C31.5893 49.9725 31.5993 49.9924 31.6191 50.0023C31.6191 50.0023 31.6191 50.0023 31.6291 50.0023C31.6489 50.0222 31.6688 50.0322 31.6887 50.052C31.7086 50.0719 31.7384 50.0818 31.7582 50.1017C31.7582 50.1017 31.7582 50.1017 31.7781 50.1116C31.8079 50.1315 31.8278 50.1415 31.8576 50.1613C31.8576 50.1613 31.8675 50.1613 31.8775 50.1713C31.9073 50.1911 31.9371 50.211 31.9769 50.2209C32.0067 50.2408 32.0464 50.2607 32.0762 50.2706C32.0762 50.2706 32.0862 50.2706 32.0961 50.2806C32.1358 50.3004 32.1656 50.3104 32.2054 50.3303C32.2054 50.3303 32.2253 50.3303 32.2352 50.3303C32.275 50.3501 32.3147 50.3601 32.3545 50.3799C32.3545 50.3799 32.4439 50.4098 32.4936 50.4197H32.5234C32.5234 50.4197 32.6128 50.4495 32.6625 50.4594C32.6625 50.4594 32.6824 50.4594 32.6923 50.4594C32.742 50.4594 32.7917 50.4694 32.8513 50.4793C32.901 50.4793 32.9606 50.4793 33.0103 50.4793H33.0401C33.0401 50.4793 33.1295 50.4793 33.1792 50.4793C33.1792 50.4793 33.2786 50.4793 33.3183 50.4694C33.3283 50.4694 33.3481 50.4694 33.3581 50.4694C33.3978 50.4694 33.4276 50.4594 33.4674 50.4495C33.4873 50.4495 33.4972 50.4495 33.5171 50.4495C33.5667 50.4396 33.6164 50.4296 33.6661 50.4098V50.3303L33.7257 47.3889C33.5667 47.3889 33.4078 47.3691 33.2488 47.3293C33.0997 47.2896 32.9507 47.2299 32.8115 47.1703L31.6589 49.4061L31.6986 49.4359ZM34.4313 47.3293L35.3554 50.1911C35.3554 50.1911 36.6074 50.2607 37.3328 49.0186L35.2461 46.8523C35.0175 47.071 34.7393 47.2399 34.4412 47.3293M28.9461 46.902C28.9461 46.902 28.8666 48.1541 30.1187 48.8795L32.2849 46.7927C32.0663 46.5642 31.8974 46.286 31.798 45.9878L28.9461 46.902ZM35.8224 45.8487C35.7827 46.0077 35.723 46.1568 35.6436 46.3058L38.3166 47.6771C38.3166 47.6771 39.2606 46.8424 38.883 45.4513L35.882 45.3916C35.882 45.5407 35.8622 45.6997 35.8224 45.8487ZM32.2849 45.332C32.2849 46.1667 32.9606 46.8424 33.7953 46.8424C34.63 46.8424 35.3057 46.1667 35.3057 45.332C35.3057 44.4973 34.63 43.8216 33.7953 43.8216C32.9606 43.8216 32.2849 44.4973 32.2849 45.332ZM45.1631 43.0366C44.9942 43.0366 44.8352 43.1459 44.7557 43.295C44.706 43.3943 44.6563 43.5036 44.6166 43.603C44.4774 43.9607 44.3284 44.3383 43.5036 44.7358C42.7882 45.0836 42.3708 45.6401 42.2814 46.3257C41.9932 46.1667 41.6951 46.0475 41.4467 45.9978C40.9598 45.8885 40.4133 46.0177 39.9959 46.3257C39.7077 46.5443 39.5289 46.8126 39.5189 47.0809C39.4991 47.4486 39.7674 47.8162 40.135 48.1441C39.7177 48.2236 39.3103 48.2833 38.9128 48.333C38.6942 48.7106 38.4358 49.0484 38.1476 49.3664C39.1711 49.2968 40.2543 49.118 41.4069 48.8397C41.5957 48.79 41.7349 48.641 41.7647 48.4423C41.7945 48.2535 41.705 48.0647 41.5361 47.9653C41.089 47.697 40.6319 47.3393 40.4928 47.1405C40.6021 47.0213 40.92 46.8424 41.2479 46.912C41.6852 47.0113 42.2814 47.379 42.4702 47.6771L42.4901 47.7069C42.7484 48.1044 43.0565 47.9852 43.1459 47.9454C43.1658 47.9454 43.5334 47.7467 43.3645 47.3095C42.8975 46.0773 43.6726 45.7096 43.9309 45.5804C44.5371 45.2823 44.8948 44.9643 45.1233 44.6662C45.0736 45.3022 44.4675 45.799 44.3781 45.8785C44.1694 46.0375 44.1396 46.3356 44.2886 46.5344C44.4476 46.743 44.7457 46.7828 44.9544 46.6337C45.0041 46.594 45.4711 46.276 45.9282 46.5741C46.1766 46.7629 46.3952 46.7033 46.5046 46.6536C47.1008 46.3754 47.4585 45.8686 47.7069 45.3916C47.7963 45.7593 47.846 46.1965 47.7467 46.5344C47.6672 46.7927 47.538 46.8623 47.4386 46.8921C47.379 46.912 47.061 47.0213 46.9716 47.3194C46.9219 47.4883 46.9716 47.6672 47.0809 47.7964C47.7169 48.5217 48.5814 49.8334 49.3366 51.006C50.3799 52.6058 50.7774 53.1722 51.0755 53.3411C51.1848 53.4008 51.314 53.4306 51.5227 53.4802C51.5823 53.4902 51.6618 53.5101 51.7313 53.5299C51.8307 53.8479 51.6618 54.4342 51.4631 54.8615H51.4034C51.2941 54.9012 51.2047 54.9608 51.1351 55.0503C50.8867 55.3782 50.4793 55.9048 50.3203 56.034C50.0123 56.2924 49.6446 56.1433 49.0583 55.8651C48.8298 55.7558 48.6112 55.6564 48.4025 55.5968C47.4486 55.3583 46.276 55.1596 44.855 55.4577C44.2091 55.5869 43.5434 55.8253 42.8875 56.1533C42.1125 56.5408 41.6852 58.3096 41.5361 59.0548C41.4864 59.3132 41.6554 59.5616 41.9137 59.6113C41.9435 59.6113 41.9733 59.6113 42.0032 59.6113C42.2218 59.6113 42.4205 59.4523 42.4702 59.2337C42.6789 58.1903 43.0863 57.1271 43.3148 56.9979C43.8912 56.7097 44.4774 56.5011 45.0438 56.3818C46.276 56.1235 47.3094 56.3023 48.164 56.5209C48.2833 56.5507 48.4522 56.6302 48.641 56.7197C49.2273 57.0078 50.1216 57.4351 50.9265 56.7594C51.165 56.5607 51.5823 56.0241 51.781 55.7558L51.8903 55.726C52.0195 55.6962 52.1288 55.6067 52.1884 55.4974C52.2779 55.3285 53.0629 53.838 52.4667 52.9138C52.3176 52.6853 52.0493 52.6356 51.7115 52.5561C51.6519 52.5462 51.5724 52.5263 51.5227 52.5164C51.3041 52.2978 50.6482 51.3041 50.1116 50.4893C49.4558 49.4956 48.7304 48.3926 48.1143 47.5976C48.5615 47.2598 48.7801 46.6337 48.7105 45.8189C48.7105 45.799 48.5217 43.9408 47.7268 43.8415C47.5082 43.8117 47.2399 43.921 47.1306 44.239V44.2588C46.9517 44.7358 46.7331 45.3618 46.2661 45.6897C46.117 45.6202 45.9779 45.5705 45.8288 45.5407C46.1369 44.9047 46.2164 44.0998 45.6003 43.295C45.4612 43.0763 45.2923 43.0267 45.1631 43.0267H45.1531M28.7076 45.2525L31.6986 45.3121C31.6986 45.1531 31.7185 44.9842 31.7582 44.8252C31.798 44.6762 31.8477 44.5271 31.9172 44.3979L29.2641 43.0366C29.2641 43.0366 28.3201 43.8713 28.6977 45.2625M30.8043 58.9555L31.6291 55.716L32.6029 55.9645L32.3843 59.2238C31.8775 59.0548 31.3409 58.9654 30.8043 58.9654M29.7808 55.249L30.7546 55.4974L29.8504 59.0648C29.4728 59.1443 29.0952 59.2536 28.7176 59.343C28.3996 59.4225 28.0915 59.5219 27.7835 59.6212L29.7808 55.249ZM18.0752 54.4541L20.142 50.6582L26.3228 54.0069L24.2559 57.8028L18.0752 54.4541ZM21.5233 50.5886L24.4447 50.1713L25.4086 52.6853L21.5233 50.5886ZM12.2422 51.1451C11.8249 50.7873 11.3678 50.4495 10.8809 50.1315L10.9306 50.0421L13.4843 49.1378L12.7391 51.4332C12.431 51.2643 12.2422 51.1451 12.2422 51.1451ZM14.4581 49.0981L16.6343 49.8235L13.7029 51.4134L14.4581 49.0881V49.0981ZM15.4121 48.4621L17.9559 47.5579L17.4491 49.1378L15.4121 48.4522V48.4621ZM18.9596 47.3989L20.3706 47.7964L18.5025 48.8099L18.9596 47.3889V47.3989ZM1.42097 45.6102C1.61971 45.6102 1.81845 45.6102 2.01719 45.6102C5.23673 45.65 8.30722 46.5542 10.6523 48.1342L9.94681 49.4359L9.79775 49.4856C7.61164 48.3031 4.98831 47.538 2.60346 47.3591C1.89794 47.3094 1.19243 47.2896 0.496845 47.3194L1.42097 45.6003V45.6102ZM20.1321 46.7927L26.1439 44.6563L21.5034 47.1803L20.1321 46.7927ZM9.04255 44.2787L8.30722 45.6301C6.38941 44.8849 4.25298 44.4774 2.04699 44.4476C2.04699 44.4476 2.02712 44.4476 2.01719 44.4476C1.57996 44.4476 1.14274 44.4476 0.705519 44.4774L0.0496836 45.6997V45.7195L0.0397484 48.5019C0.814824 48.4621 1.60977 48.4621 2.39479 48.5217C5.95219 48.79 9.37047 50.1216 11.656 52.1885C11.7454 52.2679 12.0733 52.4965 12.0733 52.4965C12.9179 53.1126 14.16 53.5796 15.432 53.7287C15.1835 55.7459 14.7066 56.5309 13.5141 57.7928C13.3452 57.7233 13.1862 57.6537 12.9875 57.5544C12.5701 57.3457 12.1727 57.1072 11.7851 56.8588C10.1853 55.5471 8.34697 54.5832 6.37947 53.9473C4.82932 53.4504 3.20961 53.1623 1.57996 53.0629C1.06324 53.0331 0.546529 53.0132 0.0298113 53.0232V53.9473C0.467034 53.9473 0.894318 53.9473 1.3216 53.9771C1.63958 53.997 1.9675 54.0168 2.28548 54.0466C2.46435 54.0665 2.65315 54.0864 2.83201 54.1063C2.86182 54.1063 2.90157 54.1063 2.94131 54.1162C2.96119 54.1162 2.991 54.1162 3.00093 54.1162C3.1003 54.1261 3.19967 54.146 3.29904 54.156C4.1238 54.2851 4.93862 54.464 5.73357 54.7025C6.18073 54.8317 6.60802 54.9807 7.04524 55.1496C7.15455 55.1894 7.26385 55.2391 7.37316 55.2788C7.41291 55.2987 7.46259 55.3186 7.50234 55.3384C7.51228 55.3384 7.52221 55.3384 7.53215 55.3384C7.5719 55.3583 7.61164 55.3782 7.65139 55.3881C7.87 55.4875 8.08861 55.5869 8.30722 55.6962C8.814 55.9446 9.31085 56.2228 9.77788 56.5209C10.2946 56.8488 10.7517 57.1867 11.1989 57.5544C11.1989 57.5544 11.2088 57.5544 11.2187 57.5643C11.2386 57.5842 11.2684 57.604 11.2982 57.6239C12.4906 58.3891 13.8123 59.025 15.2531 59.0846C15.8394 59.1145 16.4157 59.0449 16.9921 58.9356C17.2902 58.876 17.5982 58.8163 17.8963 58.7369C18.3137 58.6375 18.7111 58.4884 19.1384 58.4089C19.8539 58.2798 20.6091 58.4487 21.255 58.8362C21.5928 59.035 21.9009 59.2734 22.2188 59.502C22.5567 59.7305 22.9045 59.9392 23.2622 60.1181C24.0174 60.4857 24.8124 60.7441 25.657 60.8236C26.3824 60.8932 27.078 60.754 27.7636 60.5652C27.9027 60.5255 28.0419 60.4857 28.181 60.446C28.5387 60.3367 28.9064 60.2373 29.2641 60.138C29.3436 60.1181 29.4131 60.0982 29.4926 60.0783C29.5224 60.0783 29.5622 60.0585 29.592 60.0485C29.751 60.0088 29.9199 59.969 30.0888 59.9293C30.1485 59.9193 30.2081 59.9094 30.2677 59.8995C30.2876 59.8995 30.3174 59.8995 30.3273 59.8995C30.377 59.8995 30.4267 59.8895 30.4764 59.8895C30.5062 59.8895 30.536 59.8895 30.5658 59.8895C30.7149 59.8895 30.8639 59.8796 31.003 59.8895C31.1024 59.8895 31.2018 59.8995 31.3011 59.9193C31.321 59.9193 31.3508 59.9193 31.3608 59.9193C31.4104 59.9193 31.4701 59.9392 31.5297 59.9491C31.7781 59.9988 32.0166 60.0684 32.2451 60.1479C32.265 60.1479 32.2849 60.1678 32.3147 60.1777C32.4638 60.2373 32.6227 60.2969 32.7718 60.3566C32.8513 60.3864 32.9209 60.4162 32.9904 60.446C33.0202 60.4559 33.0401 60.4659 33.0699 60.4758C33.0798 60.4758 33.1395 60.5056 33.1494 60.5056C33.1593 60.5056 33.1792 60.5156 33.1892 60.5255C33.4574 60.6447 33.7357 60.754 34.004 60.8633C34.5903 61.1018 35.2063 61.2807 35.8224 61.3999C36.3491 61.4993 36.8559 61.5192 37.3924 61.3999C37.6508 61.3403 37.9092 61.2608 38.1675 61.1913C38.3265 61.1515 38.4954 61.1018 38.6544 61.0621C38.7141 61.0521 38.7737 61.0422 38.8234 61.0223C38.8631 61.0223 38.9029 61.0223 38.9327 61.0223C39.0022 61.0223 39.0618 61.0223 39.1215 61.0223C39.1413 61.0223 39.1612 61.0223 39.1811 61.0223C39.1612 61.0223 39.2407 61.0223 39.2506 61.0323C39.3997 61.0621 39.5487 61.1018 39.6978 61.1614C40.0953 61.0521 40.4927 60.9428 40.8703 60.8335C40.4729 60.446 39.9263 60.1976 39.3898 60.1181C39.0917 60.0783 38.7935 60.0684 38.4954 60.138C38.1675 60.2075 37.8495 60.3069 37.5316 60.3963C37.313 60.4559 37.0943 60.5155 36.8757 60.5553C36.8757 60.5553 36.826 60.5553 36.7962 60.5553C36.7366 60.5553 36.6869 60.5553 36.6273 60.5553C36.5081 60.5553 36.3888 60.5454 36.2795 60.5354C36.3491 60.5354 36.1801 60.5155 36.1503 60.5155C36.0808 60.5056 36.0013 60.4857 35.9317 60.4758C35.7429 60.4361 35.5641 60.3963 35.3753 60.3466C35.0772 60.2671 34.7691 60.1678 34.4809 60.0585C34.3319 59.9988 34.1828 59.9491 34.0437 59.8796C34.0139 59.8697 33.9841 59.8597 33.9543 59.8398C33.9344 59.8398 33.9344 59.8299 33.9245 59.8299C33.9245 59.8299 33.9046 59.8299 33.8947 59.82C33.8152 59.7902 33.7357 59.7504 33.6661 59.7206C33.527 59.661 33.3879 59.6014 33.2388 59.5417L33.7953 50.9861C33.5369 51.0556 33.2786 51.0855 33.0302 51.0855C32.9805 51.0855 32.9407 51.0855 32.891 51.0855L32.6426 55.0304L31.8278 54.8217L32.7718 51.0755C32.4339 51.0457 32.1458 50.9563 31.8974 50.847L30.9534 54.5932L30.1385 54.3845L31.798 50.7973C31.4005 50.6085 31.1422 50.37 31.0428 50.2706L26.8494 59.3927C26.7699 59.5616 26.7004 59.7007 26.6209 59.8597C26.5314 59.8697 26.452 59.8796 26.3327 59.8895C26.1538 59.8995 25.965 59.8995 25.7862 59.8895C25.7067 59.8895 25.6371 59.8796 25.5775 59.8697C25.4781 59.8597 25.3887 59.8398 25.2695 59.82C24.872 59.7504 24.4844 59.6212 24.1168 59.4821C24.0969 59.4821 24.087 59.4722 24.077 59.4722C24.077 59.4722 24.0572 59.4722 24.0373 59.4523C24.0075 59.4424 23.9777 59.4225 23.9479 59.4126C23.8584 59.3728 23.769 59.3231 23.6696 59.2834C23.4908 59.1939 23.3119 59.0946 23.133 58.9952C22.7852 58.7865 22.4573 58.5381 22.1195 58.3096C21.404 57.8127 20.6389 57.4749 19.7644 57.4351C18.9297 57.3954 18.1447 57.7134 17.3498 57.9022C17.0715 57.9618 16.7834 58.0313 16.4952 58.0711C16.4256 58.081 16.366 58.091 16.2965 58.1009C16.2965 58.1009 16.2965 58.1009 16.2865 58.1009C16.2567 58.1009 16.217 58.1009 16.1872 58.1108C16.048 58.1307 15.9089 58.1406 15.7698 58.1406C15.4618 58.1506 15.1637 58.1406 14.8656 58.1108C14.8656 58.1108 14.8656 58.1108 14.8556 58.1108C14.8556 58.1108 14.7563 58.1009 14.7165 58.091C15.7996 56.7694 16.4455 55.2888 16.6144 53.7386L16.6443 53.3809C16.6443 53.2318 16.6542 53.0828 16.6542 52.9337H16.6443V52.5661C16.376 52.5859 16.0977 52.5859 15.8195 52.5661C15.3326 52.5263 14.7761 52.3574 14.2395 52.1388L26.5811 45.4214L25.5378 47.3989C25.4384 47.5777 25.5079 47.7964 25.6868 47.8858L25.8458 47.9752C26.283 48.2137 26.442 48.7602 26.2035 49.1975C25.965 49.6347 25.4185 49.7937 24.9813 49.5552C24.5441 49.3167 24.3851 48.7702 24.6236 48.333L23.9876 47.9852C23.7491 48.4224 23.7292 48.9391 23.928 49.3962L20.4203 49.9527L20.1818 49.8235C20.0129 49.7241 19.7843 49.7937 19.6949 49.9626L17.2802 54.3944C17.1809 54.5733 17.2504 54.7919 17.4193 54.8813L24.236 58.5779C24.4149 58.6772 24.6335 58.6077 24.7229 58.4288L27.1376 53.997C27.237 53.8181 27.1674 53.5995 26.9985 53.5101L26.442 53.2119L25.4682 50.3799C26.3625 50.3501 27.0581 49.6049 27.0382 48.7205C27.0184 48.2137 26.7699 47.7367 26.3426 47.4386L27.8531 44.7358H27.8729L27.4556 43.2055L11.5864 48.8298L11.6063 48.79L12.1826 47.7169C12.0037 47.6274 11.8944 47.5678 11.8944 47.5678C11.6758 47.3989 11.4373 47.2399 11.2088 47.0809C10.5231 46.6238 9.76794 46.2263 8.98293 45.8785L9.59902 44.7457L10.1555 43.7222L10.8213 42.5994L6.89619 42.3509L9.05249 44.2588L9.04255 44.2787ZM50.7079 44.07C51.4432 43.3745 52.4468 42.977 53.5299 42.977C55.6962 42.977 57.4649 44.5967 57.4649 46.5841C57.4649 46.9318 57.4053 47.2697 57.3059 47.5976C56.6203 46.9915 55.8552 46.6536 55.2192 46.6834C54.7124 45.8587 53.4107 45.2028 52.4766 45.2923C52.1785 45.014 51.5028 44.4278 50.7079 44.07ZM49.8135 43.7819C49.8135 43.7819 49.7937 43.7819 49.7837 43.7819V43.8315C49.6744 43.9508 49.585 44.07 49.4956 44.1992L49.6645 44.6166C50.8271 44.7855 52.0295 46.0276 52.0394 46.0375L52.2183 46.2263L52.4667 46.1568C52.6952 46.0872 53.043 46.1568 53.3809 46.2959L52.0891 48.6807C51.9202 48.6807 51.7512 48.6708 51.5823 48.6609C51.4829 48.6609 51.3736 48.6609 51.2743 48.6609C51.0358 48.6609 50.7973 48.6609 50.5588 48.6609C50.2806 48.6609 50.0023 48.6509 49.7142 48.6609L50.5985 49.8235C51.0755 49.8235 51.8407 49.8235 52.2282 49.8533C52.2679 49.8533 52.3077 49.8533 52.3474 49.8533C52.7747 49.8831 53.202 49.9228 53.6293 49.9825C54.6627 50.1315 55.6664 50.37 56.6203 50.6781C56.8488 50.3203 57.0873 50.0123 57.3159 49.6943C55.9645 49.2173 54.5137 48.8894 53.0132 48.7404L54.1162 46.7033C54.3348 46.8722 54.5037 47.061 54.5733 47.2498L54.6925 47.6672L55.0999 47.5479C55.4974 47.4287 56.2327 47.7069 56.9383 48.4025L56.9681 48.4224C57.0774 48.5317 57.1867 48.6509 57.2861 48.7801L57.6438 48.8596C58.081 48.174 58.3195 47.3889 58.3195 46.5841C58.3195 44.1297 56.1731 42.1323 53.5399 42.1323C52.0791 42.1323 50.7277 42.7484 49.8235 43.7918M35.3057 43.8912C35.5243 44.1197 35.6932 44.3979 35.7827 44.706L38.6346 43.7918C38.6346 43.7918 38.7141 42.5397 37.462 41.8144L35.3057 43.8912ZM30.2578 41.6752L32.3246 43.8315C32.5532 43.6129 32.8314 43.444 33.1395 43.3446L32.2253 40.5126C32.2253 40.5126 32.2153 40.5126 32.1855 40.5126C31.9669 40.5126 30.8937 40.5723 30.2478 41.6852M33.8947 40.2543L33.835 43.2353C33.994 43.2353 34.153 43.2552 34.3021 43.295C34.4611 43.3347 34.6101 43.3943 34.7492 43.4639L36.1106 40.8107C36.1106 40.8107 35.5343 40.1549 34.5306 40.1549C34.3319 40.1549 34.1133 40.1847 33.8847 40.2443M0.0397484 41.2281V42.4106C3.04068 40.7511 6.76701 40.6517 9.69839 41.4169C12.7689 42.1125 15.9686 43.7819 17.6678 45.7096L18.7211 45.3419C16.9424 43.1062 13.385 41.1784 9.92693 40.3934C8.78419 40.0953 7.53215 39.9363 6.26023 39.9363C4.14368 39.9363 1.95756 40.3536 0.0397484 41.2181M46.9219 37.2931C46.7729 37.3626 46.6735 37.4719 46.584 37.5713C46.2164 38.0185 45.9382 38.5451 45.7692 39.1016C45.7891 39.1115 45.809 39.1314 45.8189 39.1413C45.8885 39.191 45.968 39.2506 46.0475 39.3003C46.1965 39.3997 46.3456 39.4891 46.5046 39.5786C46.5244 39.509 46.5244 39.4394 46.5443 39.3699C46.6735 38.9128 46.902 38.4656 47.2101 38.098C47.2399 38.0582 47.2498 38.0483 47.2598 38.0383C47.2896 38.0383 47.3393 38.0383 47.379 38.0383L49.2968 38.1377C49.2968 38.1377 49.3863 38.1377 49.4061 38.1377C49.4161 38.1477 49.4359 38.1675 49.4558 38.2073C49.7241 38.6047 49.9129 39.0618 49.9924 39.5388C50.0421 39.8071 50.0421 40.0655 50.0123 40.304L49.9825 40.5126C50.2706 40.4828 50.5787 40.4232 50.847 40.3636V40.2543C50.8867 39.9065 50.847 39.5984 50.8172 39.3898C50.7079 38.8035 50.4793 38.2371 50.1514 37.7402C50.0719 37.6309 49.9825 37.5117 49.8433 37.4322C49.6645 37.3229 49.4657 37.313 49.3465 37.303L47.4287 37.2037C47.4287 37.2037 47.3492 37.2037 47.3094 37.2037C47.2001 37.2037 47.061 37.2136 46.9219 37.2831M46.2164 34.63C46.1468 34.6797 46.1071 34.7492 46.1071 34.8387C46.1071 34.9281 46.127 35.0076 46.1965 35.0672L46.3158 35.1865C46.4449 35.3156 46.5741 35.4548 46.7033 35.5839C46.7232 35.6038 46.7331 35.6237 46.743 35.6436C46.6735 35.7131 46.6238 35.8026 46.6238 35.9019C46.6238 36.0013 46.6636 36.1106 46.743 36.1802C46.8225 36.2497 46.912 36.2895 47.0113 36.3093C47.1008 36.5478 47.2001 36.7764 47.2896 37.0049C47.3094 37.0546 47.3591 37.1043 47.4188 37.1142C47.4982 37.1142 47.5777 37.1142 47.6672 37.1242H47.9255L47.8758 36.9552C47.8758 36.9254 47.8659 36.8956 47.856 36.8757C47.7665 36.6472 47.6672 36.4087 47.5777 36.1702C47.6672 36.0808 47.697 35.9715 47.6771 35.8423C47.6473 35.6932 47.5281 35.574 47.379 35.5442C47.3293 35.5343 47.3094 35.5144 47.2796 35.4448C47.2598 35.3753 47.2299 35.3057 47.1803 35.256C46.9815 35.0473 46.7729 34.8387 46.584 34.6499C46.5344 34.6002 46.4648 34.5704 46.3853 34.5704C46.3257 34.5704 46.2561 34.5903 46.2065 34.63M5.94225 35.4349C5.7932 35.2461 5.73358 35.0076 5.76339 34.7691C5.82301 34.322 6.21054 33.9841 6.6577 33.9841C6.69745 33.9841 6.7372 33.9841 6.77695 33.9841C7.01543 34.0139 7.22411 34.1332 7.37316 34.3319C7.52221 34.5207 7.58183 34.7592 7.55202 34.9977C7.52221 35.2361 7.39303 35.4548 7.20423 35.6038C7.01543 35.7529 6.77695 35.8125 6.53846 35.7827C6.29998 35.7529 6.0913 35.6237 5.94225 35.4349ZM5.20692 33.0103C4.71008 33.3978 4.3921 33.9543 4.30267 34.5704C4.13374 35.8622 5.04793 37.0546 6.33972 37.2335C6.44903 37.2434 6.5484 37.2533 6.64777 37.2533C7.83026 37.2533 8.84382 36.369 8.99287 35.1964C9.07236 34.5704 8.91337 33.9444 8.52584 33.4475C8.1383 32.9507 7.58183 32.6227 6.95581 32.5433C6.84651 32.5333 6.74713 32.5234 6.63783 32.5234C6.12111 32.5234 5.61433 32.6923 5.19699 33.0202M33.9145 31.1521H34.8486V30.218H33.9145V31.1521ZM43.8912 31.1521H44.8153V30.218H43.8912V31.1521ZM33.9145 29.6019H34.8486V28.6778H33.9145V29.6019ZM43.8912 29.6019H44.8153V28.6778H43.8912V29.6019ZM57.455 21.8611C57.455 21.8611 57.445 21.8711 57.4351 21.881C55.3484 24.3453 54.5037 26.7898 54.931 29.1448C55.6067 32.8712 59.2039 34.9778 59.4523 35.1169C59.5219 35.1567 59.8995 35.3852 60.446 35.6336C60.1479 35.1567 59.9193 34.6399 59.7703 34.0835C59.035 33.6065 56.4712 31.7881 55.9545 28.966C55.6167 27.0879 56.2427 25.1005 57.8227 23.0635C57.8425 22.9144 57.8425 22.7753 57.8425 22.6163C57.8425 22.2586 57.8028 21.9207 57.7233 21.5829C57.5544 21.7419 57.455 21.8512 57.4451 21.8611M54.4044 19.8042C54.4044 19.8936 54.4044 19.983 54.3944 20.0824C54.3746 20.311 54.3646 20.5495 54.4143 20.8078C53.6194 20.4401 52.884 20.2712 52.1089 20.2812C51.9301 20.2812 51.7711 20.3905 51.7115 20.5594C51.6519 20.7283 51.6916 20.9072 51.8208 21.0264C52.5561 21.6823 53.1523 22.2785 53.2815 23.0834C52.725 22.7753 52.1586 22.507 51.5624 22.2884C50.1911 21.7717 48.949 22.1692 47.8262 22.6859C47.6672 22.7554 47.5777 22.9144 47.5777 23.0834C47.5777 23.2523 47.6771 23.4013 47.8361 23.4709C47.9852 23.5305 48.1342 23.5504 48.2236 23.5703C48.8596 23.6597 49.4856 23.7591 50.052 24.0274C50.2806 24.1367 50.3998 24.236 50.4594 24.3652C50.7277 24.9515 51.1351 25.4483 51.7612 25.9054C51.5922 26.0048 51.4332 26.1439 51.314 26.3228C51.165 26.5414 50.9762 26.6209 50.6085 26.5911C50.2706 26.5016 50.1017 26.7004 50.0421 26.7898C49.9725 26.8991 49.8831 27.1277 50.0719 27.4059C50.3799 27.9226 50.8569 28.171 51.4531 28.1313C51.2444 28.2307 51.0358 28.3201 50.8172 28.3797C50.1315 28.5685 49.3465 28.8269 48.7006 29.443C48.5714 29.5622 48.3926 29.6417 48.1541 29.6616C48.1441 29.6616 48.1342 29.6616 48.1243 29.6616C47.6771 29.6218 47.5281 29.8603 47.4784 30.0094C47.3492 30.377 47.5976 30.6553 47.7268 30.7944C47.8957 30.9732 48.1044 31.0825 48.3628 31.1024C48.631 31.1322 48.8695 31.0925 49.0782 31.0527C49.8334 30.9136 50.5191 30.9037 51.1848 31.0527C51.3339 31.0825 51.4929 31.1024 51.6519 31.1123C51.5823 31.2316 51.5326 31.3707 51.4929 31.5098C51.3736 31.8874 51.2345 32.0663 50.9761 32.1557C50.6582 32.2551 50.5886 32.4836 50.5787 32.5731C50.5588 32.6724 50.5588 32.9109 50.837 33.1196C51.2345 33.4177 51.6419 33.2388 51.8407 33.1494C52.1388 33.0103 52.3971 32.8314 52.6455 32.6526C52.7052 32.6128 52.7648 32.5631 52.8244 32.5234L52.8642 32.4936C52.8642 32.4936 52.9735 32.424 52.9834 32.4141C53.1523 32.4141 53.3113 32.4141 53.4604 32.424C53.1523 32.8612 52.8045 33.2686 52.3971 33.6761C52.2679 33.8052 52.1288 33.9344 51.9897 34.0636C51.6817 34.3518 51.3538 34.6499 51.0755 35.0076C50.6284 35.5839 50.4097 36.2298 50.4097 36.9155C50.4097 37.0447 50.4694 37.1639 50.5687 37.2434C50.6681 37.3229 50.7973 37.3527 50.9165 37.3328C51.1153 37.2931 51.2444 37.2037 51.3239 37.144L51.4034 37.0943C51.8705 36.7764 52.3176 36.4783 52.8145 36.2895C53.3213 36.1007 53.8479 35.892 54.3646 35.6535C54.4143 35.6237 54.4739 35.6038 54.5236 35.574C54.3249 36.0013 54.2255 36.4981 54.3149 37.0844C54.3447 37.2335 54.4342 37.3527 54.5733 37.4123C54.7124 37.4719 54.8615 37.4521 54.9807 37.3726C55.6564 36.8956 56.2725 36.5279 56.9283 36.2994C56.5607 36.9155 56.2129 37.5713 56.1234 38.3563C56.0042 39.3401 56.6203 41.1685 57.0873 41.5759C57.2066 41.6852 57.3854 41.7051 57.5345 41.6454C57.6835 41.5759 57.7829 41.4368 57.7928 41.2778C57.8227 40.8306 57.8624 40.4133 57.922 39.976C58.0214 39.3003 58.3195 38.9128 58.8859 38.6942C59.2734 38.5551 59.6709 38.3861 60.0088 38.0781L60.1181 37.9787C60.2771 37.8297 60.4659 37.6607 60.6348 37.4819C60.7242 37.3925 60.8037 37.313 60.8633 37.2533C60.8236 36.9055 60.7342 36.5776 60.6248 36.2596C60.5354 36.3491 60.4659 36.4385 60.4261 36.4783C60.2373 36.7068 59.7902 37.1242 59.5417 37.3527L59.4225 37.462C59.2039 37.6707 58.8958 37.7899 58.5878 37.9092C57.7928 38.2073 57.296 38.7836 57.1171 39.6481C57.0078 39.2308 56.9383 38.7935 56.978 38.4756C57.0674 37.7204 57.4649 37.0844 57.8922 36.3988C57.9916 36.2298 58.1009 36.0609 58.2003 35.892C58.2798 35.7529 58.2798 35.574 58.2003 35.4448C58.1108 35.3057 57.9518 35.2361 57.7928 35.256C56.819 35.3653 55.9744 35.7529 55.2093 36.2298C55.3484 35.733 55.7061 35.3256 56.1036 34.8685C56.1533 34.8089 56.2129 34.7492 56.2626 34.6797C56.3917 34.5207 56.4017 34.2921 56.2626 34.1332C56.1334 33.9742 55.9148 33.9245 55.726 34.0239C55.1298 34.3418 54.5634 34.63 53.987 34.9082C53.5001 35.1368 52.9933 35.3355 52.5064 35.5144C52.1189 35.6634 51.7711 35.8522 51.4332 36.0708C51.5127 35.892 51.6121 35.7231 51.7413 35.5541C51.9698 35.256 52.258 34.9877 52.5561 34.7194C52.6952 34.5903 52.8443 34.4511 52.9933 34.312C53.5995 33.7059 54.0963 33.0798 54.5137 32.3942C54.5832 32.2849 54.5932 32.1458 54.5534 32.0265C54.5037 31.9073 54.4143 31.8079 54.2851 31.7682C53.8578 31.6291 53.4107 31.5694 52.9238 31.5893C52.6654 31.5993 52.4865 31.7284 52.3574 31.8278L52.3176 31.8576C52.3176 31.8576 52.2878 31.8775 52.2779 31.8874C52.2779 31.8576 52.2978 31.8278 52.3077 31.798C52.3971 31.4999 52.5661 31.2515 52.8145 31.0627C52.8443 31.0428 52.8642 31.013 52.894 30.9832C53.0629 30.7646 53.0033 30.5559 52.9735 30.4863C52.9436 30.4068 52.8343 30.228 52.5561 30.1982C52.5064 30.1982 52.4468 30.1982 52.3971 30.2081C52.0593 30.3075 51.7115 30.3174 51.3637 30.2478C50.678 30.0988 49.9725 30.0888 49.2074 30.1982C49.2471 30.1683 49.2769 30.1385 49.3068 30.1087C49.7539 29.6814 50.3104 29.4628 51.0556 29.2542C51.5127 29.125 51.9102 28.9163 52.2978 28.7176C52.4269 28.648 52.566 28.5784 52.6952 28.5089C53.0033 28.3598 53.053 28.1412 53.053 28.022C53.053 27.8729 52.9933 27.6643 52.6952 27.5152C52.2978 27.3065 51.8903 27.2966 51.5028 27.3264C51.6916 27.227 51.8705 27.078 52.0195 26.8494C52.1388 26.6706 52.3772 26.5911 52.7548 26.4718H52.7946C52.9536 26.4122 53.0728 26.2731 53.0927 26.1042C53.1126 25.9452 53.043 25.7762 52.9039 25.6868C52.8343 25.6471 52.7648 25.5974 52.7052 25.5576C52.576 25.4781 52.4667 25.3986 52.3574 25.3291C51.8108 24.9316 51.4531 24.5341 51.2444 24.0572C51.0556 23.6299 50.678 23.4113 50.4197 23.292C50.1613 23.1728 49.893 23.0734 49.6347 23.0039C50.1812 22.9045 50.7079 22.9244 51.2643 23.1231C51.9798 23.3914 52.6654 23.7293 53.3113 24.1267C53.3709 24.1764 53.5399 24.3155 53.7883 24.2658C53.9671 24.236 54.1063 24.087 54.1261 23.8982C54.2653 22.8151 53.8877 22.0201 53.3014 21.3345C53.8578 21.4935 54.4242 21.7717 55.0701 22.189C55.2391 22.2983 55.4577 22.2785 55.6067 22.1294C55.7558 21.9903 55.7757 21.7617 55.6664 21.5928C55.4577 21.2748 55.4477 21.245 55.3981 21.086C55.3682 21.0165 55.3384 20.9171 55.2788 20.778C55.2093 20.6091 55.2291 20.4004 55.2391 20.1719C55.2391 20.0625 55.2589 19.9532 55.2589 19.834C55.2589 19.4465 55.4279 19.0192 55.6266 18.6018C55.4279 18.4329 55.1993 18.2441 54.9509 18.0454C54.6627 18.6118 54.4044 19.208 54.4044 19.8241M35.1467 15.7301C34.7294 15.8096 34.2822 15.8692 33.8152 15.9089L33.3481 15.9487L33.4276 16.8728L33.8947 16.8331C34.3915 16.7933 34.8784 16.7238 35.3256 16.6343L35.7827 16.5449L35.6038 15.6307L35.1467 15.7201V15.7301ZM29.6019 16.4952L30.0491 16.6045C30.536 16.7238 31.0229 16.8033 31.4899 16.843L31.957 16.8827L32.0365 15.9586L31.5694 15.9189C31.1521 15.8791 30.7149 15.8096 30.2677 15.7003L29.8106 15.591L29.592 16.4952H29.6019ZM45.9481 16.0182H46.8822V15.0842H45.9481V16.0182ZM20.2513 16.0977H20.9767V14.7463C20.7382 14.5675 20.4998 14.3787 20.2613 14.1998V16.0977H20.2513ZM26.0843 14.955L26.4917 15.1835C26.909 15.4121 27.3363 15.6307 27.7736 15.8294L28.2008 16.0182L28.5784 15.1736L28.1512 14.9848C27.7338 14.8059 27.3363 14.5973 26.9389 14.3787L26.5314 14.1501L26.0744 14.9649L26.0843 14.955ZM18.4329 13.216V16.0977H19.1483V13.3949C19.0689 13.3353 18.9794 13.2757 18.8999 13.216H18.4329ZM16.6343 16.0878H17.3597V13.2061H16.6443V16.0878H16.6343ZM14.8357 13.2061V16.0878H15.5512V13.2061H14.8357ZM40.3536 13.0968H41.2877V12.1627H40.3536V13.0968ZM22.974 12.8086L23.3517 13.0769C23.6199 13.2657 23.7988 13.3949 23.7988 13.3949L24.8819 14.1402L25.4086 13.375L24.3255 12.6397C24.3255 12.6397 24.1466 12.5205 23.8783 12.3217L23.5007 12.0534L22.9641 12.8086H22.974ZM11.2287 18.6018C11.2287 18.2938 11.4771 18.0454 11.7851 18.0454C12.0932 18.0454 12.3416 18.2938 12.3416 18.6018C12.3416 18.9099 12.0932 19.1583 11.7851 19.1583C11.4771 19.1583 11.2287 18.9099 11.2287 18.6018ZM11.3877 13.8719V13.852C11.3877 13.7129 11.497 13.5936 11.6361 13.5936H13.226V15.3525H11.2684L11.3877 13.8719ZM13.6036 11.8646C13.385 11.8646 13.216 12.0435 13.216 12.2522V12.8186H11.6261C11.0597 12.8186 10.6026 13.2757 10.6026 13.8321L10.4536 15.5711L10.076 15.9487C9.81763 16.207 9.79775 16.6244 9.79775 16.7039V18.6018C9.79775 18.8204 9.97662 18.9894 10.1853 18.9894H10.4834C10.6523 19.5458 11.169 19.9433 11.7653 19.9433C12.5006 19.9433 13.1067 19.3372 13.1067 18.6018C13.1067 17.8665 12.5006 17.2603 11.7653 17.2603C11.2485 17.2603 10.7914 17.5585 10.5728 17.9957V17.4094H10.7318C10.9504 17.4094 11.1194 17.2305 11.1194 17.0219C11.1194 16.8132 10.9405 16.6343 10.7318 16.6343H10.5828C10.5828 16.5846 10.6026 16.525 10.6225 16.5051L10.9802 16.1474H13.1962V18.6118C13.1962 18.8304 13.375 18.9993 13.5837 18.9993H14.0607C14.4482 18.7211 14.8656 18.4627 15.2928 18.2242C15.2928 18.2242 15.3028 18.2242 15.3127 18.2143H13.9712V17.4094H17.0914C18.0056 17.0715 18.9794 16.8033 20.0228 16.6244H13.9712V12.6496H18.0454C17.6479 12.3813 17.2305 12.123 16.7933 11.8646H13.5837H13.6036ZM27.6146 11.1094H30.1187V10.1754H27.6146V11.1094ZM35.3455 10.1555H32.4041V10.6921H32.9407V13.1564C33.1196 13.1564 33.2985 13.1365 33.4773 13.1167V10.6921H35.0871V12.8285C35.266 12.7888 35.4448 12.7391 35.6237 12.6894V10.702H36.1603V10.1654H35.3554L35.3455 10.1555ZM19.9731 10.6026L20.3507 10.8809C20.5196 11.0101 20.6886 11.1293 20.8376 11.2485C20.9767 11.3578 21.1953 11.5168 21.4736 11.7255L21.8512 12.0037L22.3977 11.2585L22.0201 10.9802C21.7518 10.7815 21.5431 10.6325 21.404 10.5231C21.245 10.4039 21.086 10.2747 20.9072 10.1455L20.5296 9.86731L19.983 10.6126L19.9731 10.6026ZM7.20423 20.6786C6.93594 20.3706 6.75707 20.0228 6.71733 19.6154C7.12474 19.7048 7.45265 19.9135 7.72095 20.2215L7.77064 20.2712L7.25392 20.7383L7.20423 20.6886V20.6786ZM1.16261 21.0463L2.77239 19.516V22.6362L1.16261 21.0463ZM0.963876 17.3398L2.51403 18.5025L0.963876 19.9831V17.3398ZM1.25205 16.4157L2.77239 15.1835V17.5485L1.25205 16.4157ZM0.963876 12.9776L2.50409 14.2296L0.963876 15.4816V12.9776ZM3.67664 11.8348L4.96844 12.7689L3.67664 13.4645V11.8348ZM4.60077 11.3877L7.32348 11.3578C7.1943 11.4672 7.07505 11.5864 6.95581 11.7056L5.85282 12.3018L4.60077 11.3877ZM1.18249 11.9839L2.76245 10.4238V13.2657L1.18249 11.9839ZM0.963876 9.59902H2.31529L0.963876 10.9306V9.59902ZM0.506781 8.69476L0.0496836 9.15186V25.965L0.606148 25.5676L0.963876 25.3589V22.1294L2.90157 24.0472L3.67664 23.7293V14.5078L5.67395 13.4247C5.44541 13.8719 5.27648 14.3389 5.16717 14.8258C4.61071 17.3697 5.95219 19.4961 6.00187 19.5856H6.02174C6.05155 20.152 6.29004 20.7084 6.68752 21.1457L6.96575 21.4537C7.10486 21.6028 7.29367 21.6127 7.45266 21.4736L7.71101 21.245L8.16811 21.7518C8.30722 21.9009 8.49603 21.9108 8.65502 21.7717C8.94319 21.5133 9.38041 21.5332 9.62883 21.8114C9.87725 22.0897 9.84744 22.5269 9.56921 22.7852C9.28104 23.0436 8.85375 23.0237 8.59539 22.7455C8.45628 22.5964 8.26748 22.5865 8.10849 22.7256C7.9495 22.8647 7.93956 23.0635 8.07868 23.2125C8.57552 23.769 9.44996 23.8087 10.0164 23.292C10.5828 22.7852 10.6424 21.9108 10.1356 21.3543C9.71826 20.8873 9.03262 20.7879 8.48609 21.0761L8.22773 20.7879L8.48609 20.5594C8.64508 20.4203 8.65502 20.2215 8.5159 20.0725L8.23767 19.7744C7.88987 19.3868 7.45266 19.1285 6.95581 18.9993L6.99556 18.9794C6.88625 18.8105 4.53121 14.9749 8.5159 11.9143L9.65864 11.2982L9.44003 10.4437L3.68658 10.5132V9.17173L3.22949 8.71464H0.516716L0.506781 8.69476ZM27.6146 9.54933H30.1187V8.61527H27.6146V9.54933ZM16.8231 8.79413L17.2405 8.99287C17.6379 9.18167 18.0454 9.40028 18.4428 9.62883L18.8403 9.85738L19.3073 9.05249L18.9099 8.81401C18.4925 8.57552 18.0652 8.34697 17.6479 8.14824L17.2305 7.9495L16.8231 8.78419V8.79413ZM19.7048 40.4033L19.7545 40.3636C19.983 40.1748 20.2513 39.986 20.5594 39.7972C22.9939 38.2967 28.7275 36.4783 31.9172 36.5975C32.4141 36.8559 32.901 37.1341 33.3481 37.4421C29.9994 37.2931 24.4348 38.7935 21.7816 40.3934C21.5133 40.5524 21.2748 40.7114 21.0662 40.8803C21.0662 40.8803 20.8078 41.079 20.6389 41.2082C20.3408 40.9399 20.0228 40.6816 19.6949 40.4232M17.7274 39.0221C17.9361 38.8432 18.1745 38.6544 18.4528 38.4656C20.6786 36.985 24.9912 35.5541 28.0021 35.2063C28.1213 35.2361 28.2306 35.256 28.34 35.2858C28.8169 35.3951 29.274 35.5343 29.7311 35.6833C29.7609 35.6932 29.8007 35.7032 29.8305 35.7231C26.5116 36.0311 22.0599 37.5713 19.7644 39.0718C19.516 39.2407 19.2875 39.3997 19.0887 39.5686C19.0589 39.5984 18.9496 39.6879 18.8403 39.7773C18.4726 39.5189 18.105 39.2705 17.7174 39.032M14.2197 37.2732C14.637 37.0049 15.0742 36.7565 15.5214 36.5279C17.0517 35.7628 18.7708 35.2262 20.5892 34.9679C21.0065 34.9082 21.4338 34.8585 21.8711 34.8387C21.9009 34.8387 21.9406 34.8387 21.9903 34.8387C22.3778 34.8188 23.143 34.8089 23.6199 34.8089C23.8584 34.8089 24.0274 34.8089 24.0274 34.8089C24.236 34.8089 24.4348 34.8089 24.6434 34.8089C21.9903 35.5144 19.2179 36.6472 17.5883 37.7999C17.32 37.9887 17.0815 38.1775 16.8827 38.3762C16.8529 38.406 16.8132 38.4358 16.7834 38.4756C15.9288 37.9986 15.0544 37.5912 14.2097 37.2831M17.5088 30.0292H18.3435C18.9894 30.0292 19.5657 30.4466 19.7644 31.0627V31.162H18.9596C18.2739 31.162 17.6777 30.695 17.5088 30.0292ZM20.6886 30.9732C20.9171 30.4068 21.4636 30.0392 22.0797 30.0392H22.9144C22.7455 30.695 22.1493 31.172 21.4636 31.172H20.6985V30.9732H20.6886ZM38.5451 30.218C38.5451 29.751 38.9227 29.3635 39.3898 29.3635C39.8568 29.3635 40.2443 29.7411 40.2443 30.2081V31.6887C40.0655 31.6887 39.8866 31.6887 39.7077 31.6887C39.3301 31.6787 38.9426 31.6787 38.5551 31.6887V30.2081L38.5451 30.218ZM29.125 34.2822C28.4095 34.0934 27.6841 33.9344 26.9389 33.835C26.4718 33.7655 26.0048 33.7158 25.5278 33.686C25.2397 33.6661 24.9614 33.6562 24.6733 33.6462C24.8223 33.4674 24.9515 33.2786 25.0807 33.0898C25.3191 32.7321 25.5179 32.3545 25.6868 31.9669C25.9949 31.2415 26.1638 30.4963 26.1737 29.7212C26.1837 29.2442 26.134 28.7672 26.0346 28.2903C26.8494 28.2307 27.6742 28.2008 28.4989 28.2207C28.6877 28.2207 28.8766 28.2307 29.0654 28.2406C28.9362 28.7076 28.8666 29.1846 28.8567 29.6616C28.8467 30.2777 28.9262 30.8838 29.0952 31.48C29.2045 31.8576 29.3436 32.2153 29.5224 32.583C29.5523 32.6526 29.592 32.7122 29.6218 32.7718C29.8305 33.1593 30.0789 33.5369 30.3571 33.9046C30.1087 34.0437 29.8603 34.1928 29.6119 34.3518C29.592 34.3617 29.5622 34.3816 29.5423 34.3915C29.4032 34.3518 29.2542 34.312 29.115 34.2723M33.4276 27.9425H35.4349L35.4647 32.0464C35.4051 32.0564 35.3454 32.0663 35.2958 32.0762C34.6201 32.2153 33.994 32.3942 33.4574 32.5631L33.4276 27.9425ZM43.3446 31.9371L43.3049 27.8829H45.3121L45.3419 32.3743C44.6762 32.1955 44.0005 32.0464 43.3347 31.9371M19.1583 28.2008H19.1384C18.9993 28.1611 18.8801 28.0518 18.8304 27.9226C18.7708 27.7835 18.7807 27.6344 18.8602 27.5053L19.2577 26.8097C19.4166 26.8693 19.5955 26.919 19.7644 26.9488V27.7437C19.7644 27.8928 19.6949 28.0319 19.5756 28.1213C19.4862 28.1909 19.3868 28.2207 19.2875 28.2207C19.2477 28.2207 19.208 28.2207 19.1682 28.2008M20.8078 28.1213C20.6886 28.0319 20.619 27.8928 20.619 27.7437V26.9488C20.7879 26.919 20.9668 26.8792 21.1258 26.8097L21.5233 27.5053C21.6028 27.6344 21.6127 27.7835 21.5531 27.9226C21.4935 28.0617 21.3841 28.1611 21.245 28.2008H21.2252C21.2252 28.2008 21.1457 28.2207 21.1059 28.2207C20.9966 28.2207 20.8972 28.1909 20.8177 28.1213M17.3697 27.1773H17.3597C17.2603 27.0581 17.2107 26.909 17.2305 26.76C17.2504 26.6109 17.3398 26.4818 17.469 26.4122L18.1646 26.0147C18.2739 26.1538 18.4031 26.2731 18.5323 26.3824L18.1348 27.078C18.0553 27.2072 17.9261 27.2867 17.787 27.3165C17.7671 27.3165 17.7473 27.3165 17.7174 27.3165C17.5982 27.3165 17.479 27.2668 17.3796 27.1773M22.6163 27.3065C22.4673 27.2866 22.3381 27.1972 22.2685 27.068L21.8711 26.3725C22.0102 26.2632 22.1294 26.134 22.2387 26.0048L22.9343 26.4023C23.0635 26.4718 23.1529 26.601 23.1728 26.7501C23.1927 26.8991 23.143 27.0382 23.0337 27.1475H23.0237C22.9343 27.2469 22.8151 27.2966 22.6859 27.2966C22.666 27.2966 22.6461 27.2966 22.6263 27.2966M36.3888 26.9687L39.3599 25.0409L42.3509 26.9389L42.3907 31.8079C42.1125 31.7781 41.8442 31.7483 41.5759 31.7284C41.3274 31.7086 41.079 31.6986 40.8207 31.6986V30.2081C40.8107 29.4231 40.1748 28.7971 39.3898 28.7971C38.6047 28.7971 37.9787 29.443 37.9787 30.218V31.7185C37.9787 31.7185 37.8893 31.7185 37.8396 31.7185C37.3626 31.7483 36.8956 31.798 36.4286 31.8675L36.3888 26.9587V26.9687ZM16.6045 25.6968C16.4654 25.6371 16.366 25.5278 16.3263 25.3887V25.3688C16.2865 25.2198 16.3163 25.0707 16.4058 24.9515C16.4952 24.8322 16.6343 24.7627 16.7834 24.7627H17.5783C17.6081 24.9416 17.6578 25.1105 17.7174 25.2695L17.0219 25.6669C16.9523 25.7067 16.8629 25.7365 16.7834 25.7365C16.7238 25.7365 16.6641 25.7266 16.6045 25.6968ZM23.3616 25.6769L22.6561 25.2695C22.7157 25.1105 22.7654 24.9416 22.7952 24.7627H23.5901C23.7392 24.7627 23.8783 24.8322 23.9677 24.9515C24.0572 25.0707 24.087 25.2198 24.0472 25.3688V25.3887C24.0075 25.5278 23.9081 25.6471 23.769 25.6968C23.7094 25.7266 23.6498 25.7365 23.5901 25.7365C23.5106 25.7365 23.4311 25.7166 23.3616 25.6769ZM22.6561 23.4113L23.3318 23.0237H23.3517C23.4808 22.9442 23.6299 22.9343 23.769 22.984C23.9081 23.0436 24.0075 23.1529 24.0472 23.292V23.3119C24.087 23.461 24.0572 23.61 23.9677 23.7293C23.8783 23.8485 23.7392 23.9181 23.5901 23.9181H22.7952C22.7654 23.7491 22.7256 23.5802 22.6561 23.4113ZM16.4157 23.7293C16.3263 23.61 16.2965 23.461 16.3362 23.3119V23.292C16.376 23.1529 16.4753 23.0337 16.6144 22.984C16.7536 22.9244 16.9126 22.9343 17.0417 23.0138L17.7373 23.4113C17.6777 23.5802 17.628 23.7491 17.5982 23.9181H16.8033C16.6542 23.9181 16.5151 23.8485 16.4256 23.7293M18.4031 24.3453C18.4031 23.3616 19.198 22.5567 20.1917 22.5567C21.1854 22.5567 21.9804 23.3616 21.9804 24.3453C21.9804 25.3291 21.1755 26.124 20.1917 26.124C19.208 26.124 18.4031 25.3192 18.4031 24.3453ZM39.817 22.2288H41.8243V22.7455H39.817V22.2288ZM21.8611 22.2983L22.2586 21.6028C22.3281 21.4736 22.4573 21.3841 22.6064 21.3643C22.7554 21.3444 22.8946 21.3941 23.0039 21.4935H23.0138C23.1231 21.6127 23.1628 21.7617 23.1529 21.9108C23.133 22.0599 23.0436 22.189 22.9144 22.2586L22.2188 22.6561C22.1095 22.517 21.9804 22.3977 21.8512 22.2884M17.4591 22.2685C17.3299 22.199 17.2405 22.0698 17.2206 21.9207C17.2007 21.7717 17.2504 21.6326 17.3498 21.5233H17.3697C17.479 21.404 17.6181 21.3543 17.7671 21.3742C17.9162 21.3941 18.0454 21.4736 18.1149 21.6127L18.5124 22.3083C18.3733 22.4176 18.254 22.5468 18.1447 22.6759L17.4491 22.2785L17.4591 22.2685ZM18.8602 21.1854C18.7807 21.0562 18.7708 20.9072 18.8304 20.7681C18.89 20.6289 18.9993 20.5296 19.1384 20.4898H19.1583C19.3073 20.4501 19.4564 20.4799 19.5756 20.5693C19.6949 20.6588 19.7644 20.7979 19.7644 20.9469V21.7419C19.5955 21.7717 19.4166 21.8114 19.2577 21.881L18.8602 21.1854ZM20.619 21.7419V20.9469C20.619 20.7979 20.6886 20.6687 20.8078 20.5693C20.9271 20.4799 21.0761 20.4501 21.2252 20.4898H21.245C21.3841 20.5296 21.5034 20.6389 21.5531 20.7681C21.6127 20.9072 21.6028 21.0562 21.5233 21.1854L21.1258 21.881C20.9668 21.8214 20.7879 21.7717 20.619 21.7419ZM48.174 14.4681C48.2932 14.4085 48.3727 14.2793 48.3727 14.1402V13.385H48.7403V14.9649C48.7403 15.0842 48.8 15.1935 48.8894 15.263L49.5949 15.7698V18.6813C48.0845 18.5124 46.6039 18.1944 45.2227 17.8764C44.5967 17.7274 43.9309 17.5783 43.2353 17.4392V15.7698L46.4151 13.4645L47.7864 14.4283C47.846 14.478 47.9255 14.4979 48.005 14.4979C48.0646 14.4979 48.1243 14.488 48.174 14.4581M17.5286 6.59808H17.5187C19.4862 7.4924 21.2252 8.82394 22.8946 10.1058C24.9912 11.7056 27.1475 13.3552 29.7808 14.16C31.8874 14.8059 34.312 14.647 36.995 13.693V16.1971L37.7303 15.9288V12.9477L40.9101 10.6424L42.2814 11.6063C42.3907 11.6858 42.5397 11.6957 42.6689 11.6361C42.7882 11.5765 42.8677 11.4473 42.8677 11.3082V10.553H43.2353V12.1329C43.2353 12.2522 43.2949 12.3615 43.3844 12.431L44.0899 12.9378V14.2495L42.659 15.2829C42.5596 15.3525 42.5099 15.4618 42.5099 15.581V17.3001C40.7909 17.002 38.9426 16.8529 37.1738 17.2107C37.1341 17.2107 37.0943 17.2107 37.0447 17.2206C36.4484 17.3796 35.8324 17.5485 35.2461 17.7771C32.6227 18.5422 29.8206 18.2242 27.3363 17.0914C24.7329 15.899 22.5766 13.9216 20.2712 12.2621C17.6976 10.4138 14.8854 8.68483 11.6361 8.58546C9.40028 8.5159 7.16449 8.65502 4.92869 8.66495V9.56921C7.01543 9.56921 9.10218 9.4599 11.179 9.47978C12.4112 9.48971 13.5936 9.62883 14.7463 10.0859C16.5747 10.8113 18.3137 11.9541 19.8936 13.0968C21.722 14.4184 23.461 15.9288 25.4086 17.0914C23.9876 17.0119 22.5666 17.0219 21.1457 17.2007C19.2477 17.4293 17.3796 17.9361 15.6903 18.8602C14.7861 19.3471 13.9514 19.9632 13.216 20.6786L13.8719 21.3345C14.0209 21.1854 14.1799 21.0364 14.3389 20.9072C14.4184 20.8376 14.4979 20.778 14.5774 20.7084C14.6171 20.6687 14.6668 20.6389 14.7066 20.5991C14.7066 20.5991 14.7264 20.5892 14.7364 20.5793C14.7563 20.5693 14.796 20.5296 14.8059 20.5296C15.1537 20.2712 15.5214 20.0327 15.899 19.8141C16.2865 19.5856 16.684 19.3868 17.0914 19.208C17.1411 19.1881 17.1808 19.1682 17.2305 19.1484C17.2405 19.1484 17.3001 19.1185 17.31 19.1185C17.4193 19.0689 17.5286 19.0291 17.6479 18.9894C17.8466 18.9099 18.0553 18.8403 18.254 18.7708C20.1321 18.1547 22.0499 17.9659 24.0274 17.9857C25.2098 17.9857 26.3824 18.0752 27.5549 18.1944C27.5848 18.1944 27.6046 18.1944 27.6344 18.1944C29.4529 18.9099 31.4105 19.2278 33.3283 19.0689C33.209 19.198 33.0997 19.3272 32.9805 19.4564C32.891 19.5458 32.8016 19.6353 32.7022 19.7247C32.7022 19.7247 32.6824 19.7446 32.6724 19.7446C32.6526 19.7644 32.6327 19.7744 32.6029 19.7943C32.5433 19.834 32.4836 19.8638 32.4141 19.8936C32.4141 19.8936 32.3843 19.9135 32.3644 19.9135C32.3445 19.9135 32.3147 19.9334 32.3048 19.9334C32.2451 19.9532 32.1855 19.9731 32.1259 19.993C31.9967 20.0327 31.8675 20.0625 31.7284 20.0924C31.2216 20.1917 30.7049 20.2513 30.2081 20.4004C29.7013 20.5495 29.2045 20.7581 28.7474 21.0264C27.7736 21.6028 27.0482 22.4573 26.6109 23.5007C26.134 24.6434 26.0247 25.8955 25.965 27.1277C25.7464 27.1376 25.6073 27.1475 25.6073 27.1475C25.2496 27.1773 24.8819 27.227 24.5341 27.2668C24.5341 27.2668 24.9018 28.4989 24.9117 28.5486C24.9912 28.9262 25.031 29.2939 25.021 29.6715C25.0012 30.4267 24.8024 31.162 24.4447 31.8675C24.236 32.265 23.9876 32.6526 23.6696 33.0302C23.5007 33.2289 23.3218 33.4276 23.133 33.6164H22.9542C22.8548 33.6164 22.7455 33.6164 22.6461 33.6164C22.3679 33.6164 22.0897 33.6363 21.8114 33.6562C21.6326 33.6661 21.4636 33.686 21.2848 33.7059C21.096 33.7257 20.8972 33.7456 20.7084 33.7655V31.798H21.7916C21.9505 31.798 22.4772 31.7384 22.7058 31.5496C22.8349 31.4403 23.0337 31.2415 23.0337 31.2316C23.4709 30.8043 23.7094 30.2379 23.7094 29.6318C23.7094 29.4231 23.5404 29.2641 23.3417 29.2641H22.0996C21.5928 29.2641 21.1059 29.433 20.7084 29.751V28.9759C21.0463 29.0852 21.414 29.0554 21.7319 28.8964C22.0599 28.7374 22.2884 28.4493 22.3977 28.1015C22.8449 28.2008 23.3119 28.0717 23.6398 27.7437C23.9677 27.4158 24.1068 26.9587 23.9975 26.5016C24.4348 26.3625 24.7726 26.0247 24.8919 25.5676C25.0111 25.1105 24.8919 24.6534 24.5838 24.3056C24.9018 23.9677 25.0111 23.5007 24.8919 23.0436C24.7726 22.5964 24.4348 22.2487 23.9975 22.1095C24.0969 21.6624 23.9677 21.1953 23.6398 20.8674C23.3119 20.5395 22.8548 20.4004 22.3977 20.5097C22.2586 20.0725 21.9207 19.7446 21.4736 19.6154C21.0165 19.4961 20.5594 19.6154 20.2116 19.9234C19.8737 19.6054 19.4067 19.4961 18.9496 19.6154C18.5025 19.7346 18.1547 20.0725 18.0255 20.5097C17.5783 20.4103 17.1113 20.5395 16.7834 20.8674C16.4555 21.1953 16.3163 21.6524 16.4256 22.1095C15.9785 22.2487 15.6506 22.5865 15.5313 23.0337C15.4121 23.4908 15.5313 23.9578 15.8394 24.2957C15.5214 24.6335 15.4121 25.1005 15.5313 25.5576C15.6506 26.0048 15.9884 26.3526 16.4256 26.4917C16.3263 26.9389 16.4555 27.4059 16.7834 27.7338C17.1113 28.0617 17.5684 28.2008 18.0255 28.0915C18.1348 28.4592 18.3832 28.7374 18.731 28.9064C19.0589 29.0654 19.4564 29.0753 19.7942 28.9461V29.7709C19.3868 29.443 18.89 29.2542 18.3733 29.2542H17.1312C16.9225 29.2542 16.7635 29.4231 16.7635 29.6218C16.7635 30.228 17.002 30.7944 17.4293 31.2117C17.4392 31.2316 17.7671 31.6489 18.2838 31.7483C18.6118 31.8079 19.4663 31.7881 19.8042 31.7781V33.8748C17.9162 34.2127 16.1275 34.8287 14.5575 35.6833C14.5575 35.6038 14.5675 35.5641 14.5675 35.5641V35.5243C14.5675 35.5243 14.5675 35.3653 14.5675 35.1964C14.7463 35.1368 14.9351 35.0672 15.1239 34.9977C15.6307 34.8089 16.1275 34.5803 16.2965 34.5008C16.535 34.4313 16.7436 34.2623 16.8728 34.0338V34.0139C16.9921 33.7953 17.0318 33.5369 16.9821 33.2885V33.2488C16.9821 33.2488 16.9523 33.1494 16.9324 33.0202V32.9904C16.9324 32.9904 16.9126 32.9109 16.8927 32.8513C16.8728 32.7321 16.843 32.5929 16.7933 32.4538C16.7536 32.3048 16.7138 32.1657 16.6741 32.0564C16.6542 32.0166 16.6443 31.9669 16.6343 31.9272L16.5548 31.6787V31.6489C16.4753 31.4601 16.3561 31.2912 16.207 31.162C16.1673 31.1223 16.1176 31.0925 16.0679 31.0627H16.048C16.048 31.0627 15.9884 31.0229 15.9487 31.003C15.9487 31.003 15.9387 31.003 15.9288 31.003C15.7301 30.9136 15.5115 30.8937 15.3028 30.9434C15.114 30.9633 14.5774 31.013 14.0408 31.1024C13.852 31.1322 13.6533 31.172 13.4545 31.2117C13.4247 31.1521 13.385 31.0925 13.3552 31.0428C13.3154 30.9931 13.2955 30.9534 13.2757 30.9235C13.2558 30.8937 13.2458 30.8838 13.2458 30.8838L13.216 30.8441C13.216 30.8441 13.1167 30.7149 13.0173 30.5758C13.1266 30.4267 13.2359 30.2578 13.3552 30.0889C13.6533 29.6417 13.9216 29.1647 14.011 28.9958C14.16 28.7971 14.2296 28.5387 14.1998 28.2803V28.2605C14.16 28.022 14.0408 27.7934 13.852 27.6146L13.8222 27.5848C13.8222 27.5848 13.7427 27.5152 13.6533 27.4258L13.6334 27.4059C13.6334 27.4059 13.5638 27.3463 13.534 27.3165C13.4446 27.227 13.3253 27.1277 13.1962 27.0382L12.5701 26.5712L12.5403 26.5513C12.282 26.3824 11.964 26.3128 11.6758 26.3725C11.4572 26.4122 11.2684 26.5314 11.1392 26.6904C11.0001 26.8097 10.5927 27.1773 10.2151 27.5649C10.0859 27.704 9.93687 27.8531 9.80769 27.9922C9.74807 27.9624 9.68845 27.9325 9.62883 27.9127C9.5394 27.8829 9.48971 27.863 9.4599 27.8531L9.26117 27.7835C9.26117 27.7835 9.19161 27.7537 9.15186 27.7437L9.0823 27.7139C9.0823 27.5351 9.0823 27.3363 9.06243 27.1277C9.05249 26.8395 9.02268 26.5314 8.99287 26.1936L8.95312 25.8557C8.95312 25.6471 8.90344 25.4483 8.77426 25.2794C8.60533 25.0409 8.3271 24.872 8.01906 24.8223C7.9495 24.8124 7.84019 24.7925 7.70108 24.7826H7.62158C7.48246 24.7726 7.32348 24.7627 7.16449 24.7527C6.926 24.7329 6.72726 24.7329 6.55834 24.7428H6.31985C6.00187 24.7627 5.70376 24.8919 5.50503 25.1105C5.35597 25.2695 5.27648 25.4682 5.2566 25.6769C5.23673 25.7564 5.21686 25.8756 5.17711 26.0247C5.11749 26.3029 5.06781 26.6308 5.01812 26.9389C4.98831 27.1475 4.9585 27.3562 4.93862 27.5351C4.91875 27.5351 4.90881 27.5351 4.88894 27.545C4.84919 27.545 4.81938 27.5649 4.77963 27.5649L4.60077 27.6046C4.54115 27.6146 4.44178 27.6344 4.32254 27.6841C4.28279 27.6941 4.23311 27.7139 4.18342 27.7338C4.08405 27.5947 3.95487 27.4357 3.81576 27.2668C3.4779 26.8494 3.11024 26.442 2.98106 26.3029C2.86182 26.124 2.68296 25.9949 2.46435 25.9253C2.16624 25.8359 1.84826 25.8856 1.57996 26.0445L0.904257 26.442L0.238485 26.9289C0.15899 26.9885 0.0894323 27.0482 0.0198742 27.1277V28.5983C0.12918 28.8368 0.278231 29.1647 0.447158 29.4827C0.53659 29.6516 0.63596 29.8305 0.735328 30.0094C0.695581 30.0491 0.66577 30.0789 0.645896 30.1087C0.576338 30.1882 0.516719 30.2578 0.476971 30.3273L0.347791 30.4963C0.327917 30.5161 0.308042 30.5459 0.288168 30.5758C0.288168 30.5758 0.278231 30.6056 0.268294 30.6155C0.198736 30.5956 0.119243 30.5758 0.0397484 30.5459V31.8874C0.158991 31.9272 0.25836 31.957 0.317981 31.9769L0.814825 32.1458L1.1328 31.6092C1.19243 31.5198 1.25205 31.4403 1.31167 31.3608C1.35142 31.3111 1.38123 31.2713 1.41104 31.2316L1.52034 31.0825C1.52034 31.0825 1.53028 31.0627 1.54022 31.0527C1.54022 31.0527 1.56009 31.0329 1.5899 30.9931C1.67933 30.8937 1.78864 30.7646 1.92775 30.6056L2.3451 30.1882L2.10662 29.8007L2.05693 29.7112C2.05693 29.7112 2.02712 29.6616 2.00725 29.6218C1.86813 29.3933 1.71908 29.125 1.59984 28.8865C1.4011 28.4989 1.2123 28.0816 1.12287 27.8829L1.59984 27.5351L2.10662 27.237C2.25567 27.4059 2.56371 27.7338 2.83201 28.0816C3.06056 28.3598 3.24936 28.6182 3.34873 28.7474L3.3686 28.7672C3.3686 28.7672 3.41828 28.8368 3.43816 28.8666L3.71639 29.274L4.18342 29.1051C4.18342 29.1051 4.22317 29.0852 4.26292 29.0753H4.28279C4.48153 28.9958 4.65045 28.9461 4.75976 28.8964H4.77963C4.77963 28.8964 4.84919 28.8666 4.85913 28.8666L5.0678 28.8169C5.0678 28.8169 5.15724 28.7971 5.20692 28.7871H5.22679C5.31623 28.7573 5.4156 28.7374 5.51497 28.7176L6.14099 28.6381L6.18073 28.1114C6.18073 28.0319 6.22048 27.5947 6.29004 27.1177C6.32979 26.8296 6.38941 26.5215 6.43909 26.2731C6.45897 26.1737 6.47884 26.0942 6.48878 26.0247H6.60802C6.72726 26.0147 6.91606 26.0247 7.06511 26.0346C7.23404 26.0346 7.40297 26.0545 7.53215 26.0644H7.58183C7.58183 26.0644 7.63152 26.0644 7.65139 26.0744L7.6812 26.3426C7.71101 26.6507 7.74082 26.9289 7.75076 27.1873C7.77063 27.5947 7.77064 27.9922 7.77064 28.1909V28.6977L8.4364 28.8766C8.49603 28.8865 8.54571 28.9064 8.59539 28.9163L8.69476 28.956C8.69476 28.956 8.75438 28.9759 8.79413 28.9958L8.973 29.0554C8.973 29.0554 9.06243 29.0852 9.16179 29.125C9.21148 29.1448 9.31085 29.1945 9.39034 29.2343C9.44996 29.2641 9.50959 29.2939 9.57915 29.3237C9.60896 29.3336 9.62883 29.3436 9.6487 29.3635L10.1058 29.592L10.4536 29.1747C10.4536 29.1747 10.5132 29.1051 10.543 29.0753C10.7119 28.8766 10.9206 28.6579 11.1094 28.4691C11.4175 28.1512 11.7553 27.8431 11.9143 27.704L12.4112 28.0816C12.4906 28.1313 12.5602 28.2108 12.6496 28.2803C12.6894 28.3201 12.7291 28.3598 12.7689 28.3896C12.7888 28.4095 12.8086 28.4294 12.8384 28.4493C12.7192 28.6579 12.5006 29.0455 12.2621 29.4032C12.0534 29.7212 11.8348 30.0193 11.6858 30.218L11.3877 30.6254L11.7156 31.0229C11.7156 31.0229 11.7454 31.0627 11.7653 31.0726C11.9342 31.3111 12.0435 31.4701 12.1329 31.5794C12.1329 31.5794 12.1329 31.5794 12.1329 31.5893C12.1329 31.5893 12.1329 31.6092 12.1429 31.6191C12.1925 31.6986 12.2919 31.8775 12.431 32.106C12.441 32.1259 12.4509 32.1458 12.4608 32.1756C12.4608 32.1855 12.4708 32.1955 12.4807 32.2054C12.4807 32.2153 12.4906 32.2352 12.5006 32.2452L12.7291 32.7022L13.226 32.583C13.4148 32.5433 13.8023 32.4538 14.2097 32.3843C14.637 32.3048 15.0941 32.2551 15.3028 32.2352C15.3028 32.2551 15.3227 32.2849 15.3326 32.3147L15.4816 32.8016C15.5214 32.9805 15.5611 33.1494 15.591 33.2885C15.591 33.3183 15.6009 33.3481 15.6108 33.368C15.3922 33.4674 14.9848 33.6463 14.5873 33.7953C14.2296 33.9344 13.8818 34.0437 13.6433 34.1232L13.1564 34.2723L13.1862 34.7791C13.1862 34.7791 13.1862 34.8287 13.1862 34.8486C13.1862 35.1368 13.1862 35.3355 13.1862 35.4846C13.1862 35.4846 13.1564 35.7628 13.1167 36.1702C13.1167 36.1702 13.1167 36.2298 13.1067 36.2596L13.0571 36.5677C12.7093 36.8062 12.3813 37.0645 12.0634 37.3328C12.0634 37.3328 11.169 37.8893 10.1455 38.2967C7.45265 37.8098 3.86544 37.8197 0.953941 38.7935L1.0235 38.7538C0.963877 38.6544 0.86451 38.4855 0.745267 38.2768C0.745267 38.2768 0.715456 38.2073 0.705519 38.1775L0.476971 37.7402L0 37.8495V40.3636C3.27917 38.6544 8.1383 38.8134 11.0299 39.5488C14.2395 40.2741 18.095 42.7087 19.7545 44.7954L20.7879 44.4278C20.7879 44.4278 20.7681 44.3979 20.7581 44.388C19.1682 42.2218 15.422 39.7276 12.0435 38.724C12.2422 38.6147 12.5801 38.406 12.6397 38.3563C12.7888 38.2172 12.9477 38.088 13.1167 37.9589C16.366 38.9029 20.3308 41.8044 21.7717 43.9309C21.7717 43.9309 21.7816 43.9508 21.7916 43.9607L22.8051 43.603C22.7554 43.5136 22.6958 43.4341 22.6362 43.3446C22.3083 42.8677 21.8711 42.351 21.3643 41.8342C21.6226 41.6554 22.2685 41.2082 22.4474 41.0989C24.9217 39.6581 31.4999 37.6707 34.8287 38.5352C34.9182 38.5948 34.9977 38.6544 34.9977 38.6544C35.9119 39.3103 37.2831 39.7872 38.6544 39.8767C38.7339 39.8767 38.8035 39.8767 38.883 39.8866C39.1016 39.8866 39.3103 39.8866 39.5189 39.8866C39.4792 39.9661 41.0592 39.668 41.5262 39.4394C41.5759 39.4196 41.6355 39.3997 41.6951 39.3699C42.2814 39.1413 42.8776 39.0817 43.5931 39.2506C43.8713 39.3103 44.1495 39.509 44.4079 39.7077C44.4377 39.7276 44.4675 39.7574 44.4973 39.7773C44.6166 39.8767 44.7259 39.9661 44.8352 40.0456C45.9382 40.8803 47.1505 41.7051 48.5814 41.8541C49.4459 41.9435 50.3899 41.8541 51.2544 41.6752C51.4034 41.6454 51.5525 41.6057 51.7015 41.5659C52.2083 41.4268 52.6257 41.1088 53.1523 41.0492C53.9175 40.9598 55.0006 40.8107 55.8452 41.1088C55.6465 40.7114 55.4577 40.304 55.4279 39.8866C54.7919 39.8568 55.3981 39.8866 54.6826 39.8469C53.6094 39.7773 52.8542 39.8667 51.6817 40.3338C51.6817 40.3338 51.4829 40.3934 51.1948 40.4729C50.6979 40.6021 49.9129 40.771 49.3167 40.7511C49.2769 40.7511 49.2372 40.7511 49.1875 40.7511C48.1441 40.6617 46.8822 40.1648 45.9183 39.5289C45.8388 39.4792 45.7692 39.4295 45.6897 39.3699C45.3519 39.1215 45.024 38.8234 44.6662 38.5948C44.4774 38.4656 44.2787 38.3563 44.0601 38.2768C43.0465 37.9092 41.9932 37.9589 41.1188 38.3464C40.4232 38.6445 39.5786 38.7538 38.7141 38.724C37.0645 38.6743 35.1368 37.313 35.1368 37.313C33.9344 36.2994 32.5035 35.4647 30.9335 34.8387C30.9335 34.8387 30.9235 34.8387 30.9136 34.8387C30.9136 34.8387 30.9136 34.8387 30.9335 34.8387C32.3843 34.0239 34.0338 33.4376 35.7926 33.1097C36.1106 33.05 36.4286 33.0004 36.7465 32.9606C37.1142 32.9109 37.4819 32.8712 37.8595 32.8513C38.3364 32.8215 40.0158 32.8116 40.0158 32.8116C40.4927 32.8116 40.9598 32.8116 41.4368 32.8513C44.5768 33.06 47.5082 34.0934 49.744 35.7429C49.8533 35.3455 50.1514 34.9182 50.4097 34.6598C49.2571 33.8152 47.7963 33.1395 46.2561 32.6327L46.2164 27.3562C46.2164 27.227 46.1667 27.1078 46.0773 27.0184C45.9878 26.9289 45.8686 26.8792 45.7394 26.8792H43.2552V26.6308C43.2552 26.4619 43.1757 26.3128 43.0366 26.2333L39.7872 24.1665V23.6696L42.2715 23.6597C42.4006 23.6597 42.5199 23.61 42.6093 23.5206C42.6987 23.4311 42.7484 23.3119 42.7484 23.1827V21.7021C42.7484 21.573 42.6888 21.4537 42.5994 21.3643C42.5099 21.2748 42.3907 21.2252 42.2615 21.2252L39.3003 21.245C39.1711 21.245 39.0519 21.2947 38.9625 21.3841C38.873 21.4736 38.8234 21.5928 38.8234 21.722V24.1764L35.6137 26.2731C35.4746 26.3625 35.3951 26.5116 35.3951 26.6805V26.9389L32.9109 26.9488C32.7817 26.9488 32.6625 26.9985 32.5731 27.0879C32.4836 27.1773 32.4339 27.2966 32.4339 27.4258L32.4737 32.8513C32.424 32.8712 32.3644 32.891 32.3147 32.9109C32.0663 33.0103 31.8179 33.1196 31.5694 33.2289C31.4999 33.2587 31.4403 33.2885 31.3806 33.3183C31.013 32.8712 30.7149 32.4141 30.4963 31.947C30.3273 31.5794 30.1982 31.2117 30.1087 30.8441C30.0193 30.4466 29.9795 30.0491 29.9895 29.6516C29.9895 29.2442 30.059 28.8368 30.1783 28.4393C30.1882 28.3896 30.5758 27.1575 30.5758 27.1575C30.0789 27.1078 29.5821 27.068 29.0753 27.0482C29.0753 26.8494 29.0753 26.6507 29.0753 26.442C29.0753 26.283 29.0852 26.134 29.1051 25.975C29.1051 25.9054 29.115 25.8359 29.125 25.7564C29.125 25.7365 29.125 25.6868 29.1349 25.6769C29.1349 25.6371 29.1448 25.5874 29.1548 25.5477C29.1846 25.3986 29.2144 25.2397 29.2641 25.0906C29.284 25.031 29.3038 24.9614 29.3237 24.9018C29.3237 24.9018 29.3535 24.8422 29.3535 24.8322C29.3635 24.8024 29.3833 24.7726 29.3933 24.7527C29.4628 24.6136 29.5523 24.4745 29.6417 24.3453C29.6715 24.3056 29.6914 24.2658 29.7212 24.236C29.7212 24.236 29.7609 24.1863 29.7709 24.1665C29.8206 24.1069 29.8702 24.0373 29.9299 23.9777C30.0292 23.8584 30.1385 23.7491 30.2478 23.6498C30.2975 23.6001 30.3472 23.5603 30.3969 23.5206C30.4168 23.5007 30.4366 23.4908 30.4664 23.4709C30.4764 23.461 30.5161 23.4311 30.5261 23.4311C30.6354 23.3517 30.7546 23.2821 30.8739 23.2125C30.9235 23.1827 30.9832 23.1529 31.0329 23.1231C31.0627 23.1032 31.1024 23.0933 31.1322 23.0734C31.1422 23.0734 31.2018 23.0436 31.2217 23.0337C31.4403 22.9442 31.6688 22.8846 31.9073 22.8349C31.947 22.8349 32.0067 22.8051 32.0563 22.8051H32.0762C32.106 22.8051 32.1458 22.8051 32.1756 22.8051C32.2948 22.7952 32.4141 22.7852 32.5333 22.7852C32.6526 22.7852 32.7718 22.7852 32.8811 22.7952C32.9407 22.7952 33.0003 22.7952 33.05 22.8151C33.06 22.8151 33.1097 22.825 33.1196 22.825C33.1295 22.825 33.1395 22.825 33.1494 22.825C33.4376 22.8747 33.7158 22.9442 33.9841 23.0337C34.0437 23.0535 34.1133 23.0734 34.1729 23.1032C34.1828 23.1032 34.1928 23.1132 34.2127 23.1231C34.2226 23.1231 34.2325 23.1231 34.2425 23.133C34.322 23.1728 34.4014 23.2125 34.4809 23.2523C34.6399 23.3417 34.7989 23.4311 34.9678 23.4808C35.882 23.7789 36.8658 23.4311 37.77 23.2622C37.939 23.2324 38.1079 23.2026 38.2768 23.1728V22.2288C38.1476 22.2487 38.0185 22.2785 37.8893 22.2983C37.5117 22.3679 37.144 22.4375 36.7764 22.5269C36.667 22.5468 36.5577 22.5766 36.4385 22.5964C36.3988 22.5964 36.3689 22.6064 36.3292 22.6163C36.3292 22.6163 36.2795 22.6163 36.2596 22.6163C36.1901 22.6163 36.1106 22.6362 36.041 22.6362C35.892 22.6461 35.7429 22.6561 35.5839 22.6362C35.5442 22.6362 35.5044 22.6362 35.4647 22.6362C35.415 22.6263 35.3554 22.6163 35.3057 22.6064C35.266 22.5964 35.2163 22.5766 35.1765 22.5666C35.107 22.5368 35.0473 22.4971 34.9778 22.4573C34.779 22.3381 34.5604 22.2487 34.3418 22.1692C33.8052 21.9804 33.219 21.8711 32.6426 21.8512C31.4502 21.8214 30.2975 22.2685 29.4529 23.1032C28.9064 23.6498 28.4592 24.3255 28.2803 25.0906C28.1313 25.7166 28.1015 26.3725 28.1114 27.0184C27.7239 27.0184 27.2568 27.0382 26.8296 27.0581C26.8792 26.0445 26.9587 25.0707 27.2966 24.0969C27.386 23.8386 27.4556 23.6895 27.5848 23.4311C27.6444 23.3119 27.7139 23.2026 27.7835 23.0834C27.8133 23.0337 27.8431 22.984 27.8829 22.9442C27.9027 22.9144 27.9226 22.8946 27.9425 22.8647C27.9425 22.8647 27.9723 22.825 27.9822 22.8151C28.1313 22.6263 28.3002 22.4573 28.4791 22.2884C28.5188 22.2487 28.5685 22.2089 28.6182 22.1692C28.6381 22.1493 28.6679 22.1294 28.6877 22.1095C28.6877 22.1095 28.6877 22.1095 28.7076 22.0996C28.807 22.03 28.9064 21.9605 29.0057 21.8909C29.2144 21.7618 29.4231 21.6425 29.6516 21.5431C29.7013 21.5233 29.751 21.5034 29.8007 21.4736C29.8106 21.4736 29.8901 21.4438 29.9 21.4338C30.0193 21.3841 30.1485 21.3444 30.2677 21.3047C30.7447 21.1556 31.2415 21.0761 31.7384 20.9867C32.2948 20.8873 32.8215 20.7283 33.2587 20.3706C33.6562 20.0526 33.9344 19.6154 34.322 19.2875C34.3915 19.2278 34.4611 19.1782 34.5902 19.0887C34.6996 19.0092 34.8188 18.9397 34.938 18.8801C35.0573 18.8105 35.1865 18.7509 35.3057 18.7012C35.3256 18.7012 35.3454 18.6813 35.3653 18.6714C35.3753 18.6714 35.3852 18.6714 35.3753 18.6714C35.3753 18.6714 35.3852 18.6714 35.3951 18.6714C35.4647 18.6416 35.5442 18.6118 35.6137 18.5919C36.0708 18.423 36.5478 18.2838 37.0148 18.1547L37.1738 18.1249C37.9688 17.9559 38.8432 17.8864 39.7674 17.9162C41.5361 17.9758 43.2949 18.3832 44.9942 18.7807C46.5244 19.1384 48.1143 19.5061 49.7142 19.6253C49.8632 19.6353 50.0123 19.6452 50.1613 19.6452C51.8307 19.6452 53.5896 18.9993 54.8018 17.9361C54.5733 17.7572 54.3348 17.5585 54.0665 17.3398C53.0132 18.1845 51.473 18.7608 50.2508 18.731V15.5611C50.2508 15.4419 50.1911 15.3326 50.1017 15.263L49.3962 14.7563V12.9974C49.3962 12.7987 49.2372 12.6298 49.0285 12.6298H47.9255C47.7268 12.6298 47.5579 12.7888 47.5579 12.9974V13.4048L46.5443 12.6993C46.4151 12.6099 46.2462 12.6099 46.117 12.6993L44.7358 13.7029V12.7391C44.7358 12.6198 44.6762 12.5105 44.5867 12.441L43.8812 11.9342V10.1754C43.8812 9.97662 43.7123 9.80769 43.5136 9.80769H42.4106C42.2118 9.80769 42.0429 9.97662 42.0429 10.1754V10.5828L41.0293 9.87725C40.9002 9.78782 40.7312 9.78782 40.6021 9.87725L37.0546 12.441C36.9751 12.5006 36.9254 12.59 36.9055 12.6795C34.3021 13.6433 32.0862 13.852 30.1286 13.2955C27.6742 12.6 25.5676 11.1094 23.6498 9.59902L23.5703 9.52946C21.8313 8.15817 20.1818 6.86638 18.2242 5.93231C17.9857 6.19067 17.7174 6.37947 17.4293 6.56827M33.7953 4.44178C33.7257 4.44178 33.6661 4.5014 33.6661 4.57096V5.4156H32.8215C32.7519 5.4156 32.6923 5.47522 32.6923 5.54477V6.51859C32.6923 6.58815 32.7519 6.64777 32.8215 6.64777H33.6661V7.4924C33.6661 7.56196 33.7257 7.62158 33.7953 7.62158H34.7691C34.8387 7.62158 34.8983 7.56196 34.8983 7.4924V6.64777H35.7429C35.8125 6.64777 35.8721 6.58815 35.8721 6.51859V5.54477C35.8721 5.47522 35.8125 5.4156 35.7429 5.4156H34.8983V4.57096C34.8983 4.5014 34.8387 4.44178 34.7691 4.44178H33.7953ZM22.8548 5.27648H23.7889V4.35235H22.8548V5.27648ZM26.3327 5.27648H27.2568V4.35235H26.3327V5.27648ZM31.1422 2.54384C30.9235 2.54384 30.7447 2.7227 30.7447 2.94132V7.10487H26.5911C26.3725 7.10487 26.1936 7.28373 26.1936 7.50234V10.8411C26.4619 11.02 26.7302 11.1889 26.9985 11.3578V7.89981H30.7546V12.9676C31.013 13.0272 31.2813 13.067 31.5595 13.1067V3.33879H37.0248V11.8448L37.8297 11.2684V7.90975H41.5858V9.51953L41.7547 9.63877C41.9038 9.44003 42.1323 9.30091 42.3907 9.2711V7.51228C42.3907 7.29367 42.2118 7.1148 41.9932 7.1148H37.8396V2.95125C37.8396 2.73264 37.6607 2.55378 37.4421 2.55378H31.172L31.1422 2.54384ZM31.8974 0.0993691L31.7582 0.198738L28.9362 2.2358V0.407412C28.9362 0.288169 28.8765 0.178864 28.7871 0.109306V0.089432C28.6579 1.48071e-07 28.489 1.48071e-07 28.3598 0.089432L28.2207 0.188801L25.3986 2.22586V0.397476C25.3986 0.278234 25.339 0.168927 25.2496 0.0993691V0.0794949C25.1204 -0.00993695 24.9515 -0.00993695 24.8223 0.0794949L21.2748 2.64321C21.1854 2.71277 21.1258 2.82207 21.1258 2.94132V7.04524C21.3742 7.21417 21.6127 7.3831 21.8611 7.56196V3.13012L24.6733 1.09306V2.92144C24.6733 3.04068 24.7329 3.14999 24.8223 3.21955L24.8422 3.19967V3.22948C24.9614 3.31892 25.1303 3.31892 25.2595 3.22948L25.3986 3.13012L28.2108 1.09306V2.92144C28.2108 3.04068 28.2704 3.14999 28.3598 3.21955L28.3797 3.19967V3.22948C28.4989 3.31892 28.6679 3.31892 28.7971 3.22948L28.9362 3.13012L31.7483 1.09306V2.047H32.4836V0.387539C32.4836 0.268297 32.424 0.15899 32.3346 0.089432V0.0695597C32.275 0.0298122 32.1955 0 32.1259 0C32.0564 0 31.9769 0.0198753 31.9073 0.0695597" fill="white"/>
</mask>
<g mask="url(#mask0_1_643)">
<path d="M50.7335 -22.668L-31.626 14.1559L10.1746 107.646L92.5341 70.8221L50.7335 -22.668Z" fill="url(#paint0_linear_1_643)"/>
</g>
<defs>
<linearGradient id="paint0_linear_1_643" x1="7.04947" y1="-8.52788" x2="36.9864" y2="58.4283" gradientUnits="userSpaceOnUse">
<stop stop-color="#E72276"/>
<stop offset="0.19" stop-color="#E72276"/>
<stop offset="0.23" stop-color="#CC2E7B"/>
<stop offset="0.34" stop-color="#81518B"/>
<stop offset="0.42" stop-color="#536795"/>
<stop offset="0.46" stop-color="#417099"/>
<stop offset="0.62" stop-color="#327EA2"/>
<stop offset="0.92" stop-color="#0AA3BB"/>
<stop offset="1" stop-color="#00AEC3"/>
</linearGradient>
</defs>
</svg>
